<svg width="24" height="24" viewBox="0 0 24 24" fill="none" xmlns="http://www.w3.org/2000/svg">
<path d="M15.0512 4.07466C15.3113 5.17727 16.301 5.99866 17.4829 5.99866C18.8627 5.99866 19.9813 4.87965 19.9813 3.49933C19.9813 2.11902 18.8627 1 17.4829 1C16.2764 1 15.2703 1.85537 15.036 2.99314C13.0155 3.20991 11.4378 4.92417 11.4378 7.00167C11.4378 7.00636 11.4378 7.00988 11.4378 7.01456C9.24041 7.10713 7.23397 7.73284 5.641 8.72062C5.04949 8.26247 4.30688 7.98945 3.50102 7.98945C1.5672 7.98945 0 9.55725 0 11.4918C0 12.8955 0.824597 14.1048 2.01581 14.6637C2.13177 18.7297 6.56047 22 12.0082 22C17.4559 22 21.8905 18.7261 22.0006 14.6567C23.1824 14.0942 24 12.8885 24 11.493C24 9.55842 22.4328 7.99063 20.499 7.99063C19.6966 7.99063 18.9575 8.2613 18.3672 8.71594C16.7602 7.72113 14.7315 7.09541 12.5119 7.01222C12.5119 7.0087 12.5119 7.00636 12.5119 7.00285C12.5119 5.51473 13.6176 4.27971 15.0512 4.077V4.07466ZM5.50044 13.7146C5.559 12.4444 6.40234 11.4695 7.38272 11.4695C8.3631 11.4695 9.11274 12.4995 9.05417 13.7697C8.99561 15.0398 8.26354 15.5015 7.28199 15.5015C6.30044 15.5015 5.44187 14.9848 5.50044 13.7146ZM16.6348 11.4695C17.6164 11.4695 18.4597 12.4444 18.5171 13.7146C18.5757 14.9848 17.716 15.5015 16.7356 15.5015C15.7552 15.5015 15.022 15.041 14.9634 13.7697C14.9048 12.4995 15.6533 11.4695 16.6348 11.4695ZM15.4682 16.6533C15.6521 16.6721 15.7693 16.8631 15.6978 17.0341C15.0946 18.4766 13.6703 19.4901 12.0082 19.4901C10.3461 19.4901 8.92299 18.4766 8.31859 17.0341C8.24714 16.8631 8.36427 16.6721 8.54817 16.6533C9.62577 16.5444 10.7912 16.4846 12.0082 16.4846C13.2252 16.4846 14.3895 16.5444 15.4682 16.6533Z" fill="#FAFAFA"/>
</svg>
