<svg width="205" height="193" viewBox="0 0 205 193" fill="none" xmlns="http://www.w3.org/2000/svg">
<path d="M118.894 28.2461C118.894 19.3941 111.59 12.1251 102.222 12.125C92.8539 12.125 85.5499 19.394 85.5499 28.2461C85.5499 30.3758 85.9304 33.1689 86.7003 36.542L88.3927 43.9531H49.1749C40.8046 43.9531 34.0189 50.7388 34.0187 59.1094V87.875L13.2052 112.156L34.0187 136.437V165.203C34.0187 173.574 40.8044 180.359 49.1749 180.359H155.269C163.639 180.359 170.425 173.574 170.425 165.203V136.437L191.236 112.156L170.425 87.875V59.1094C170.425 50.739 163.639 43.9533 155.269 43.9531H116.051L117.742 36.542C118.512 33.1689 118.894 30.3758 118.894 28.2461ZM131.012 28.8877C130.992 29.8428 130.928 30.8253 130.827 31.8281H155.269C170.336 31.8283 182.55 44.0428 182.55 59.1094V83.3906L202.345 106.485C205.141 109.749 205.142 114.564 202.345 117.828L182.55 140.921V165.203C182.55 180.27 170.336 192.484 155.269 192.484H49.1749C34.1079 192.484 21.8937 180.27 21.8937 165.203V140.923L2.09777 117.828C-0.699604 114.564 -0.69891 109.749 2.09777 106.485L21.8937 83.3896V59.1094C21.8939 44.0427 34.1079 31.8281 49.1749 31.8281H73.6163C73.5159 30.8253 73.4516 29.8428 73.4318 28.8877L73.4249 28.2461C73.4249 12.3814 86.478 0 102.222 0C117.965 0.00014284 131.019 12.3814 131.019 28.2461L131.012 28.8877Z" fill="black"/>
</svg>
