<svg width="1048" height="187" viewBox="0 0 1048 187" fill="none" xmlns="http://www.w3.org/2000/svg">
<path d="M64.0535 186.531C51.9601 186.531 41.2428 184.279 31.9016 179.775C22.6439 175.271 15.221 169.141 9.63304 161.385C4.12845 153.545 0.959134 144.704 0.125104 134.863L0 133.361H26.7724L26.8975 134.237C27.7315 139.658 29.8166 144.579 33.1527 148.999C36.5722 153.336 40.9509 156.798 46.2886 159.383C51.6264 161.885 57.5898 163.136 64.1786 163.136C71.7683 163.136 78.4822 161.51 84.3204 158.257C90.1586 155.004 94.7041 150.501 97.9568 144.746C101.21 138.991 102.836 132.402 102.836 124.979V124.729C102.836 117.39 101.168 110.884 97.8317 105.213C94.579 99.5414 90.0752 95.0794 84.3204 91.8267C78.5656 88.574 71.9768 86.9476 64.5539 86.9476C58.9659 86.9476 53.7949 87.7816 49.0409 89.4497C44.287 91.0343 40.0751 93.453 36.4054 96.7057C34.8207 98.1236 33.2778 99.7082 31.7765 101.46C30.3587 103.211 29.0659 105.088 27.8983 107.089H3.25272L12.1351 3.00251H119.85V26.6472H34.9041L29.3995 83.82H30.0251C32.694 79.7332 36.0718 76.272 40.1585 73.4363C44.3287 70.6006 48.9992 68.4738 54.1702 67.056C59.4246 65.5547 65.0126 64.8041 70.9342 64.8041C82.4438 64.8041 92.6607 67.3896 101.585 72.5606C110.509 77.6482 117.515 84.654 122.602 93.5781C127.773 102.502 130.359 112.719 130.359 124.229V124.479C130.359 136.656 127.523 147.415 121.852 156.756C116.18 166.097 108.34 173.395 98.3321 178.649C88.4071 183.904 76.9809 186.531 64.0535 186.531Z" fill="white"/>
<path d="M218.933 186.531C204.587 186.531 192.244 182.736 181.902 175.146C171.643 167.557 163.762 156.798 158.257 142.869C152.753 128.941 150 112.427 150 93.3279V93.0777C150 73.9784 152.753 57.4646 158.257 43.5363C163.762 29.6081 171.643 18.8908 181.902 11.3845C192.244 3.79483 204.587 0 218.933 0C233.278 0 245.58 3.79483 255.839 11.3845C266.181 18.8908 274.104 29.6081 279.608 43.5363C285.196 57.4646 287.99 73.9784 287.99 93.0777V93.3279C287.99 112.427 285.196 128.941 279.608 142.869C274.104 156.798 266.181 167.557 255.839 175.146C245.58 182.736 233.278 186.531 218.933 186.531ZM218.933 163.011C227.523 163.011 234.821 160.217 240.826 154.629C246.914 149.041 251.543 141.034 254.713 130.609C257.965 120.184 259.592 107.757 259.592 93.3279V93.0777C259.592 78.649 257.965 66.2637 254.713 55.9217C251.543 45.4963 246.914 37.4896 240.826 31.9016C234.821 26.3136 227.523 23.5196 218.933 23.5196C210.342 23.5196 203.003 26.3136 196.914 31.9016C190.909 37.4896 186.322 45.4963 183.153 55.9217C179.984 66.2637 178.399 78.649 178.399 93.0777V93.3279C178.399 107.757 179.984 120.184 183.153 130.609C186.322 141.034 190.909 149.041 196.914 154.629C203.003 160.217 210.342 163.011 218.933 163.011Z" fill="white"/>
<path d="M313.512 122.602V97.9568H443.745V122.602H313.512ZM366.306 173.019V47.5397H390.826V173.019H366.306Z" fill="white"/>
<path d="M526.44 183.528V3.00251H558.842L617.265 146.998H618.016L676.44 3.00251H708.967V183.528H683.321V50.4171H670.435L699.709 8.00668L628.024 183.528H607.257L535.697 8.00668L564.972 50.4171H552.086V183.528H526.44Z" fill="white"/>
<path d="M819.559 186.531C802.545 186.531 787.741 182.736 775.147 175.146C762.637 167.557 752.962 156.798 746.123 142.869C739.284 128.858 735.864 112.302 735.864 93.2028V93.0777C735.864 73.9784 739.284 57.4646 746.123 43.5363C752.962 29.6081 762.637 18.8908 775.147 11.3845C787.658 3.79483 802.462 0 819.559 0C832.82 0 844.789 2.54379 855.464 7.63137C866.14 12.719 874.939 19.7665 881.861 28.774C888.784 37.7815 893.162 48.2486 894.997 60.1752L895.122 61.4263H867.224L866.473 58.9242C864.555 51.8349 861.428 45.7465 857.091 40.6589C852.837 35.5714 847.541 31.6931 841.202 29.0242C834.947 26.2719 827.733 24.8958 819.559 24.8958C808.383 24.8958 798.667 27.6898 790.41 33.2778C782.236 38.8658 775.898 46.7474 771.394 56.9225C766.89 67.0977 764.638 79.1494 764.638 93.0777V93.2028C764.638 107.048 766.89 119.141 771.394 129.483C775.898 139.742 782.278 147.665 790.535 153.253C798.792 158.841 808.467 161.635 819.559 161.635C827.566 161.635 834.697 160.301 840.952 157.632C847.291 154.879 852.67 150.876 857.091 145.622C861.511 140.367 864.805 133.945 866.974 126.355L867.349 125.104H895.247L894.997 126.355C893.162 138.366 888.784 148.916 881.861 158.007C875.022 167.014 866.265 174.02 855.589 179.024C844.914 184.029 832.904 186.531 819.559 186.531Z" fill="white"/>
<path d="M934.78 121.852V98.3321H981.069C993.163 98.3321 1002.55 95.2045 1009.22 88.9493C1015.97 82.6106 1019.35 73.8533 1019.35 62.6773V62.4271C1019.35 51.0843 1015.97 42.2853 1009.22 36.0301C1002.55 29.7749 993.163 26.6472 981.069 26.6472H934.78V3.00251H988.075C999.918 3.00251 1010.3 5.5046 1019.23 10.5088C1028.23 15.4295 1035.28 22.352 1040.37 31.2761C1045.46 40.1168 1048 50.4171 1048 62.1769V62.4271C1048 74.1869 1045.46 84.5706 1040.37 93.5781C1035.28 102.502 1028.23 109.466 1019.23 114.471C1010.3 119.391 999.918 121.852 988.075 121.852H934.78ZM920.769 183.528V3.00251H948.792V183.528H920.769Z" fill="white"/>
</svg>
