<svg width="26" height="27" viewBox="0 0 26 27" fill="none" xmlns="http://www.w3.org/2000/svg">
<path d="M25.26 12L22 4H24V2H14V0H12V2H2V4H4L0.76 12H0V14H0.3C0.612778 14.9958 1.24551 15.8606 2.1 16.46C2.9433 17.0715 3.95832 17.4008 5 17.4008C6.04168 17.4008 7.0567 17.0715 7.9 16.46C8.75472 15.8563 9.39277 14.9939 9.72 14H10V12H9.1L5.76 4H12V20H8L7.22 20.36L3.22 25.38L4 27H22L22.78 25.38L18.78 20.36L18 20H14V4H20.26L16.92 12H16V14H16.3C16.6271 14.9909 17.2584 15.8534 18.104 16.4647C18.9496 17.0761 19.9665 17.4052 21.01 17.4052C22.0535 17.4052 23.0704 17.0761 23.916 16.4647C24.7616 15.8534 25.3929 14.9909 25.72 14H26V12H25.26ZM6.44 15.02C5.99893 15.2641 5.50408 15.3947 5 15.4C4.50189 15.3974 4.01284 15.2665 3.58 15.02C3.13862 14.7781 2.76675 14.4268 2.5 14H7.5C7.2355 14.4217 6.87151 14.7719 6.44 15.02ZM6.94 12H2.94L4.94 7.2L6.94 12ZM17.52 22L20 25H6L8.48 22H17.52ZM21.08 7.24L23.08 12.04H19.08L21.08 7.24ZM22.44 15.06C22.0027 15.3134 21.5054 15.4447 21 15.44C20.5006 15.4471 20.0091 15.3156 19.58 15.06C19.138 14.8013 18.7669 14.4371 18.5 14H23.5C23.2521 14.445 22.885 14.8121 22.44 15.06Z" fill="white"/>
</svg>
