<svg width="122" height="128" viewBox="0 0 122 128" fill="none" xmlns="http://www.w3.org/2000/svg">
<path d="M121.441 72.2998L113.772 56.859V47.9663C113.772 33.2261 101.976 21.2884 87.4275 21.2884H74.3218C75.2704 19.3347 75.7914 17.1385 75.7914 14.8211C75.7914 6.62905 69.2185 0 61.096 0C52.9735 0 46.4006 6.62905 46.4006 14.8211C46.4006 17.1385 46.9217 19.3347 47.8702 21.2884H34.7646C20.2162 21.2884 8.41978 33.2261 8.41978 47.9663V56.859L0.591155 72.2594C-0.197052 73.8088 -0.197052 75.6547 0.591155 77.2042L8.41978 92.4295V101.322C8.41978 116.062 20.2162 128 34.7646 128H87.4275C101.976 128 113.772 116.062 113.772 101.322V92.4295L121.427 77.1503C122.189 75.6278 122.189 73.8358 121.441 72.2998ZM53.0804 84.8842C53.0804 91.5806 47.6965 97.0105 41.0569 97.0105C34.4172 97.0105 29.0334 91.5806 29.0334 84.8842V63.3263C29.0334 56.6299 34.4172 51.2 41.0569 51.2C47.6965 51.2 53.0804 56.6299 53.0804 63.3263V84.8842ZM91.8227 84.8842C91.8227 91.5806 86.4389 97.0105 79.7992 97.0105C73.1596 97.0105 67.7757 91.5806 67.7757 84.8842V63.3263C67.7757 56.6299 73.1596 51.2 79.7992 51.2C86.4389 51.2 91.8227 56.6299 91.8227 63.3263V84.8842Z" fill="white"/>
</svg>
