<svg width="28" height="28" viewBox="0 0 28 28" fill="none" xmlns="http://www.w3.org/2000/svg">
<path fill-rule="evenodd" clip-rule="evenodd" d="M26.982 0C19.7852 0.00900726 13.6746 3.96537 9.31269 8H1L0 9V15L0.294 15.708L2.27591 17.6899L2.27799 17.708L10.278 25.708L10.296 25.7101L12.294 27.7081L13 28.0001H19L20 27.0001V18.692C24.0381 14.3368 27.992 8.22601 27.984 1L26.982 0ZM2 10H7.28614C5.18494 12.208 3.6634 14.2399 2.83687 15.4219L2 14.586V10ZM13.4 26.0001L12.561 25.1531C13.7452 24.331 15.7799 22.8169 17.99 20.7222V26.0001H13.4ZM11.114 23.712L4.27199 16.874C6.25599 14 14.758 2.71 25.956 2.032C25.304 13.256 13.982 21.738 11.114 23.712ZM6 28V26H2V22H0V28H6ZM19.4951 12.6657C19.8243 12.1726 20 11.5929 20 11C20 10.6052 19.9221 10.2143 19.7707 9.84965C19.6193 9.48502 19.3974 9.15386 19.1178 8.87515C18.8382 8.59645 18.5063 8.37568 18.1411 8.2255C17.776 8.07533 17.3848 7.9987 16.99 8.00002C16.3971 8.00199 15.8181 8.17962 15.326 8.51046C14.834 8.84131 14.451 9.31053 14.2255 9.85888C14 10.4072 13.942 11.0101 14.0589 11.5914C14.1758 12.1727 14.4623 12.7063 14.8822 13.1248C15.3022 13.5434 15.8367 13.8281 16.4184 13.9431C17.0001 14.058 17.6028 13.998 18.1504 13.7707C18.6979 13.5433 19.1659 13.1588 19.4951 12.6657Z" fill="white"/>
</svg>
