<svg width="27" height="27" viewBox="0 0 27 27" fill="none" xmlns="http://www.w3.org/2000/svg">
<path fill-rule="evenodd" clip-rule="evenodd" d="M12.7866 27.0006H14.214L17.672 23.5426H22.4972L23.5024 22.5374V17.672L27.0006 14.214V12.7866L23.5627 9.32859V4.42304L22.5575 3.43791H17.672L14.214 0H12.7866L9.42911 3.43791H4.46325L3.3977 4.44314V9.32859L0 12.7866V14.214L3.3977 17.672V22.5374L4.46325 23.5426H9.42911L12.7866 27.0006ZM9.75079 21.5321H5.40817V17.2498L5.16691 16.5462L2.1311 13.4903L5.1066 10.4544L5.40817 9.75079V5.44838H9.75079L10.4746 5.16691L13.4501 2.1311L16.5462 5.16691L17.2498 5.44838H21.4919V9.75079L21.8337 10.4544L24.8896 13.4903L21.7734 16.5462L21.4919 17.2498V21.5321H17.2498L16.4859 21.8337L13.4501 24.8695L10.4746 21.8136L9.75079 21.5321ZM10.8968 18.476H12.3243L19.9036 10.8967L18.4762 9.46924L11.6206 16.3449L8.84607 13.5703L7.41864 14.9977L10.8968 18.476Z" fill="#E2D5FF"/>
</svg>
