<?xml version="1.0" encoding="UTF-8"?>
<svg id="Layer_1" xmlns="http://www.w3.org/2000/svg" version="1.1" viewBox="0 0 512 535">
  <!-- Generator: Adobe Illustrator 29.8.5, SVG Export Plug-In . SVG Version: 2.1.1 Build 2)  -->
  <defs>
    <style>
      .st0 {
        fill: #fff;
      }
    </style>
  </defs>
  <path class="st0" d="M500.6,300.5c-9-20.7-17.9-41.4-26.9-62.1-.7-2-.3-4.4-.3-6.4.4-9,1.1-18,1.4-27,2.8-28.4-6.5-58-25.2-79.6-15.1-18.1-36.6-30.7-59.6-35.5-8.1-1.8-16.6-1.6-25-2.1-10-.7-20-1-30-1.7,2-11.9,1-24.1-3.7-35.3-5.8-14.1-16.8-25.9-30.6-32.5-14.4-7-31.5-8.2-46.7-3.1-16,5.2-29.5,17-36.8,32.1-4.9,10-6.8,21.2-6.1,32.2-19.7-1-39.4-2.2-59.1-3.1-26.8.5-53,11.7-72,30.6-20.2,19.5-31.7,47-32.3,75-.5,9.3-1,18.7-1.5,28-.2,2.1,0,4.1-1.2,6-9.8,16.8-19.5,33.7-29.4,50.6-2.2,4.1-4.9,8-6.6,12.3-2,5.7-1.2,12.2,1.3,17.6,8.9,19.5,17.6,39.2,26.5,58.7.8,1.9,1.5,3.7,1.3,5.8-.6,10.3-1.1,20.7-1.7,31-1.5,21.2,3,42.6,13.5,61.1,8.8,15.8,21.6,29.4,37.1,38.9,13.9,8.7,29.7,13.9,46,15.4,72,3.9,144,7.7,216,11.5,20.1,1.8,40.8-2.8,58.5-12.5,18.8-10.1,34.2-26,44.1-44.9,6.5-12.6,10.5-26.4,11.7-40.5.7-12.4,1.2-24.7,2-37.1,0-3.3,1.9-5.5,3.3-8.2,6.6-11.8,13.5-23.4,20.1-35.2,3.7-6.9,8.1-13.4,11.6-20.4,3.2-6.1,3.2-13.5.3-19.7ZM218.5,316.5c-9.7,7.1-21.3,12.3-33.5,12.5-17.6,1-35.1-5.3-49-16-4.6-3.2-8.1-7.5-9.6-13,0-1.8-.7-3.6,1.7-3.8,4,1,7.9,2.6,12,3.5,22.8,5.6,47.6,5.9,71,4.8,6.5-.2,13-1.3,19.5-.9-2.7,5.6-7.1,9.2-12,12.9ZM276,449.7c-14,.5-28,.1-42-.2-2.1,0-4.3,0-6.4-.4-.9-2.1.6-3.2,1.7-4.8,4.8-5.9,11-11,18.7-12.4,8.4-1.6,16.5,1.2,23.5,5.5,4.7,3,9.2,6.3,12.6,10.8-2.6,1.1-5.3,1.4-8.1,1.4ZM390.4,319.4c-16.4,14.2-38.8,21.8-60.4,18.4-13.2-1.6-24.7-8.6-34.1-17.7-3-3-6.2-6.5-8.1-10.4.5-1,1.2-1.6,2.2-1.6,2.8-.2,5.7.7,8.5,1.1,16,2.9,32.3,4.9,48.5,5.5,14.3.4,28.2-.2,42.2-3.6,2.2-.6,3.7-.3,5.8.5-1.1,2.9-2.2,5.7-4.6,7.8Z"/>
</svg>