<svg width="426" height="121" viewBox="0 0 426 121" fill="none" xmlns="http://www.w3.org/2000/svg">
<path d="M114.317 68.0068L107.099 53.5136V45.1668C107.099 31.3312 95.9942 20.1262 82.2992 20.1262H69.9623C70.8552 18.2924 71.3456 16.231 71.3456 14.0557C71.3456 6.36649 65.1583 0.144287 57.5123 0.144287C49.8662 0.144287 43.6789 6.36649 43.6789 14.0557C43.6789 16.231 44.1693 18.2924 45.0622 20.1262H32.7254C19.0303 20.1262 7.9259 31.3312 7.9259 45.1668V53.5136L0.556479 67.9689C-0.185493 69.4232 -0.185493 71.1558 0.556479 72.6102L7.9259 86.9011V95.2479C7.9259 109.083 19.0303 120.289 32.7254 120.289H82.2992C95.9942 120.289 107.099 109.083 107.099 95.2479V86.9011L114.305 72.5596C115.021 71.1306 115.021 69.4485 114.317 68.0068ZM49.9668 79.8189C49.9668 86.1043 44.8987 91.201 38.6486 91.201C32.3984 91.201 27.3303 86.1043 27.3303 79.8189V59.5841C27.3303 53.2986 32.3984 48.202 38.6486 48.202C44.8987 48.202 49.9668 53.2986 49.9668 59.5841V79.8189ZM86.4366 79.8189C86.4366 86.1043 81.3685 91.201 75.1184 91.201C68.8682 91.201 63.8002 86.1043 63.8002 79.8189V59.5841C63.8002 53.2986 68.8682 48.202 75.1184 48.202C81.3685 48.202 86.4366 53.2986 86.4366 59.5841V79.8189Z" fill="white"/>
<path d="M166.384 95.6764C160.744 95.6764 155.854 94.3563 151.714 91.7163C147.634 89.0163 144.454 85.2364 142.174 80.3764C139.954 75.4564 138.844 69.7263 138.844 63.1863C138.844 56.5863 139.984 50.8563 142.264 45.9963C144.544 41.1363 147.784 37.3863 151.984 34.7463C156.184 32.0463 161.164 30.6963 166.924 30.6963C171.424 30.6963 175.564 31.5663 179.344 33.3063C183.124 35.0463 186.214 37.5663 188.614 40.8664C191.074 44.1663 192.424 48.1863 192.664 52.9263H176.464C176.164 49.8663 175.204 47.4363 173.584 45.6363C171.964 43.7763 169.744 42.8463 166.924 42.8463C164.524 42.8463 162.334 43.6263 160.354 45.1863C158.434 46.6863 156.904 48.9663 155.764 52.0263C154.684 55.0263 154.144 58.7463 154.144 63.1863C154.144 67.5663 154.684 71.2863 155.764 74.3463C156.844 77.3463 158.284 79.6264 160.084 81.1864C161.944 82.7464 164.044 83.5263 166.384 83.5263C168.364 83.5263 170.074 83.1364 171.514 82.3563C173.014 81.5164 174.214 80.3163 175.114 78.7563C176.074 77.1963 176.644 75.3063 176.824 73.0863H193.024C192.544 77.7064 191.164 81.7264 188.884 85.1464C186.664 88.5064 183.664 91.1163 179.884 92.9763C176.104 94.7763 171.604 95.6764 166.384 95.6764Z" fill="white"/>
<path d="M217.269 94.5963V27.9963H231.309V94.5963H217.269ZM201.069 94.5963V83.2563H247.689V94.5963H201.069ZM207.369 39.3363V27.9963H224.289V39.3363H207.369Z" fill="white"/>
<path d="M275.804 94.5963V44.5563H289.844V94.5963H275.804ZM259.604 94.5963V83.2563H306.224V94.5963H259.604ZM265.904 55.8963V44.5563H282.824V55.8963H265.904ZM275.264 37.8963V24.7563H290.204V37.8963H275.264Z" fill="white"/>
<path d="M351.169 94.5963V63.7263C351.169 61.1463 350.509 59.0763 349.189 57.5163C347.869 55.9563 346.129 55.1763 343.969 55.1763C341.509 55.1763 339.229 56.0163 337.129 57.6963C335.089 59.3163 332.929 62.1363 330.649 66.1563L328.669 54.2763C330.949 50.3763 333.709 47.6163 336.949 45.9963C340.189 44.3163 343.489 43.4763 346.849 43.4763C350.689 43.4763 353.959 44.2863 356.659 45.9063C359.419 47.5263 361.519 49.7763 362.959 52.6563C364.459 55.5363 365.209 58.9263 365.209 62.8263V94.5963H351.169ZM317.779 94.5963V44.5563H331.369L331.819 53.4663V94.5963H317.779Z" fill="white"/>
<path d="M400.344 95.6764C394.944 95.6764 390.294 94.6263 386.394 92.5263C382.554 90.4263 379.584 87.4263 377.484 83.5263C375.384 79.6263 374.334 74.9763 374.334 69.5763C374.334 64.1163 375.384 59.4363 377.484 55.5363C379.584 51.6363 382.614 48.6663 386.574 46.6263C390.594 44.5263 395.424 43.4763 401.064 43.4763C409.884 43.4763 416.274 45.9963 420.234 51.0363C424.254 56.0163 425.934 62.8863 425.274 71.6463H385.494L385.584 62.0163H410.964C410.784 59.7363 409.764 57.9063 407.904 56.5263C406.044 55.0863 403.734 54.3663 400.974 54.3663C396.654 54.3663 393.474 55.7163 391.434 58.4163C389.394 61.1163 388.374 65.0463 388.374 70.2063C388.374 72.7863 388.824 75.1563 389.724 77.3163C390.624 79.4763 391.944 81.2163 393.684 82.5363C395.484 83.7963 397.704 84.4264 400.344 84.4264C403.164 84.4264 405.534 83.7364 407.454 82.3563C409.434 80.9763 410.634 79.2364 411.054 77.1364H425.094C424.494 82.8364 421.974 87.3663 417.534 90.7263C413.154 94.0263 407.424 95.6764 400.344 95.6764Z" fill="white"/>
</svg>
