<svg width="115" height="121" viewBox="0 0 115 121" fill="none" xmlns="http://www.w3.org/2000/svg">
<path d="M114.317 67.8625L107.099 53.3693V45.0225C107.099 31.1869 95.9942 19.9819 82.2992 19.9819H69.9623C70.8552 18.1481 71.3456 16.0867 71.3456 13.9114C71.3456 6.22221 65.1583 0 57.5123 0C49.8662 0 43.6789 6.22221 43.6789 13.9114C43.6789 16.0867 44.1693 18.1481 45.0622 19.9819H32.7254C19.0303 19.9819 7.9259 31.1869 7.9259 45.0225V53.3693L0.556479 67.8246C-0.185493 69.279 -0.185493 71.0116 0.556479 72.4659L7.9259 86.7568V95.1036C7.9259 108.939 19.0303 120.144 32.7254 120.144H82.2992C95.9942 120.144 107.099 108.939 107.099 95.1036V86.7568L114.305 72.4154C115.021 70.9863 115.021 69.3042 114.317 67.8625ZM49.9668 79.6746C49.9668 85.96 44.8987 91.0567 38.6486 91.0567C32.3984 91.0567 27.3303 85.96 27.3303 79.6746V59.4398C27.3303 53.1543 32.3984 48.0577 38.6486 48.0577C44.8987 48.0577 49.9668 53.1543 49.9668 59.4398V79.6746ZM86.4366 79.6746C86.4366 85.96 81.3685 91.0567 75.1184 91.0567C68.8682 91.0567 63.8002 85.96 63.8002 79.6746V59.4398C63.8002 53.1543 68.8682 48.0577 75.1184 48.0577C81.3685 48.0577 86.4366 53.1543 86.4366 59.4398V79.6746Z" fill="#18181B"/>
</svg>
