<svg width="426" height="121" viewBox="0 0 426 121" fill="none" xmlns="http://www.w3.org/2000/svg">
<path d="M114.317 67.8625L107.099 53.3693V45.0225C107.099 31.1869 95.9942 19.9819 82.2992 19.9819H69.9623C70.8552 18.1481 71.3456 16.0867 71.3456 13.9114C71.3456 6.22221 65.1583 0 57.5123 0C49.8662 0 43.6789 6.22221 43.6789 13.9114C43.6789 16.0867 44.1693 18.1481 45.0622 19.9819H32.7254C19.0303 19.9819 7.9259 31.1869 7.9259 45.0225V53.3693L0.556479 67.8246C-0.185493 69.279 -0.185493 71.0116 0.556479 72.4659L7.9259 86.7568V95.1036C7.9259 108.939 19.0303 120.144 32.7254 120.144H82.2992C95.9942 120.144 107.099 108.939 107.099 95.1036V86.7568L114.305 72.4154C115.021 70.9863 115.021 69.3042 114.317 67.8625ZM49.9668 79.6746C49.9668 85.96 44.8987 91.0567 38.6486 91.0567C32.3984 91.0567 27.3303 85.96 27.3303 79.6746V59.4398C27.3303 53.1543 32.3984 48.0577 38.6486 48.0577C44.8987 48.0577 49.9668 53.1543 49.9668 59.4398V79.6746ZM86.4366 79.6746C86.4366 85.96 81.3685 91.0567 75.1184 91.0567C68.8682 91.0567 63.8002 85.96 63.8002 79.6746V59.4398C63.8002 53.1543 68.8682 48.0577 75.1184 48.0577C81.3685 48.0577 86.4366 53.1543 86.4366 59.4398V79.6746Z" fill="#18181B"/>
<path d="M166.384 95.5321C160.744 95.5321 155.854 94.2121 151.714 91.5721C147.634 88.8721 144.454 85.0921 142.174 80.2321C139.954 75.3121 138.844 69.5821 138.844 63.0421C138.844 56.4421 139.984 50.7121 142.264 45.8521C144.544 40.9921 147.784 37.2421 151.984 34.6021C156.184 31.9021 161.164 30.5521 166.924 30.5521C171.424 30.5521 175.564 31.4221 179.344 33.1621C183.124 34.9021 186.214 37.4221 188.614 40.7221C191.074 44.0221 192.424 48.0421 192.664 52.7821H176.464C176.164 49.7221 175.204 47.2921 173.584 45.4921C171.964 43.6321 169.744 42.7021 166.924 42.7021C164.524 42.7021 162.334 43.4821 160.354 45.0421C158.434 46.5421 156.904 48.8221 155.764 51.8821C154.684 54.8821 154.144 58.6021 154.144 63.0421C154.144 67.4221 154.684 71.1421 155.764 74.2021C156.844 77.2021 158.284 79.4821 160.084 81.0421C161.944 82.6021 164.044 83.3821 166.384 83.3821C168.364 83.3821 170.074 82.9921 171.514 82.2121C173.014 81.3721 174.214 80.1721 175.114 78.6121C176.074 77.0521 176.644 75.1621 176.824 72.9421H193.024C192.544 77.5621 191.164 81.5821 188.884 85.0021C186.664 88.3621 183.664 90.9721 179.884 92.8321C176.104 94.6321 171.604 95.5321 166.384 95.5321Z" fill="#18181B"/>
<path d="M217.269 94.4521V27.8521H231.309V94.4521H217.269ZM201.069 94.4521V83.1121H247.689V94.4521H201.069ZM207.369 39.1921V27.8521H224.289V39.1921H207.369Z" fill="#18181B"/>
<path d="M275.804 94.4521V44.4121H289.844V94.4521H275.804ZM259.604 94.4521V83.1121H306.224V94.4521H259.604ZM265.904 55.7521V44.4121H282.824V55.7521H265.904ZM275.264 37.7521V24.6121H290.204V37.7521H275.264Z" fill="#18181B"/>
<path d="M351.169 94.4521V63.5821C351.169 61.0021 350.509 58.9321 349.189 57.3721C347.869 55.8121 346.129 55.0321 343.969 55.0321C341.509 55.0321 339.229 55.8721 337.129 57.5521C335.089 59.1721 332.929 61.9921 330.649 66.0121L328.669 54.1321C330.949 50.2321 333.709 47.4721 336.949 45.8521C340.189 44.1721 343.489 43.3321 346.849 43.3321C350.689 43.3321 353.959 44.1421 356.659 45.7621C359.419 47.3821 361.519 49.6321 362.959 52.5121C364.459 55.3921 365.209 58.7821 365.209 62.6821V94.4521H351.169ZM317.779 94.4521V44.4121H331.369L331.819 53.3221V94.4521H317.779Z" fill="#18181B"/>
<path d="M400.344 95.5321C394.944 95.5321 390.294 94.4821 386.394 92.3821C382.554 90.2821 379.584 87.2821 377.484 83.3821C375.384 79.4821 374.334 74.8321 374.334 69.4321C374.334 63.9721 375.384 59.2921 377.484 55.3921C379.584 51.4921 382.614 48.5221 386.574 46.4821C390.594 44.3821 395.424 43.3321 401.064 43.3321C409.884 43.3321 416.274 45.8521 420.234 50.8921C424.254 55.8721 425.934 62.7421 425.274 71.5021H385.494L385.584 61.8721H410.964C410.784 59.5921 409.764 57.7621 407.904 56.3821C406.044 54.9421 403.734 54.2221 400.974 54.2221C396.654 54.2221 393.474 55.5721 391.434 58.2721C389.394 60.9721 388.374 64.9021 388.374 70.0621C388.374 72.6421 388.824 75.0121 389.724 77.1721C390.624 79.3321 391.944 81.0721 393.684 82.3921C395.484 83.6521 397.704 84.2821 400.344 84.2821C403.164 84.2821 405.534 83.5921 407.454 82.2121C409.434 80.8321 410.634 79.0921 411.054 76.9921H425.094C424.494 82.6921 421.974 87.2221 417.534 90.5821C413.154 93.8821 407.424 95.5321 400.344 95.5321Z" fill="#18181B"/>
</svg>
