<svg xmlns:dc="http://purl.org/dc/elements/1.1/" xmlns:cc="http://creativecommons.org/ns#" xmlns:rdf="http://www.w3.org/1999/02/22-rdf-syntax-ns#" xmlns:svg="http://www.w3.org/2000/svg" xmlns="http://www.w3.org/2000/svg" xmlns:sodipodi="http://sodipodi.sourceforge.net/DTD/sodipodi-0.dtd" xmlns:inkscape="http://www.inkscape.org/namespaces/inkscape" width="398.61368mm" height="133.49409mm" viewBox="0 0 398.61368 133.49409" version="1.1" id="svg842" inkscape:version="0.92.5 (2060ec1f9f, 2020-04-08)" sodipodi:docname="AMAZON.svg">
  <defs id="defs836"/>
  <sodipodi:namedview id="base" pagecolor="#ffffff" bordercolor="#666666" borderopacity="1.0" inkscape:pageopacity="0.0" inkscape:pageshadow="2" inkscape:zoom="0.96709653" inkscape:cx="753.28571" inkscape:cy="252.27231" inkscape:document-units="mm" inkscape:current-layer="layer1" showgrid="false" inkscape:window-width="1920" inkscape:window-height="1009" inkscape:window-x="-8" inkscape:window-y="-8" inkscape:window-maximized="1"/>
  <g inkscape:label="Layer 1" inkscape:groupmode="layer" id="layer1" transform="translate(128.24732,-81.330339)">
    <path style="fill:currentColor;fill-rule:nonzero;stroke:none;stroke-width:5.11043167;fill-opacity:1" inkscape:connector-curvature="0" d="m -108.757,152.11534 c -3.86001,0 -7.25789,-0.84271 -10.19368,-2.52813 -2.93579,-1.73959 -5.21918,-4.13178 -6.85016,-7.17658 -1.63099,-3.09845 -2.44648,-6.6594 -2.44648,-10.68285 0,-4.83855 1.19606,-9.07919 3.58819,-12.7214 2.44646,-3.64271 5.89871,-6.44272 10.35675,-8.40001 4.51241,-1.95679 9.78596,-2.93543 15.820617,-2.93543 2.772665,0 5.02887,0.1901 6.768614,0.57083 v -1.7125 c 0,-4.13199 -0.761148,-7.20372 -2.283392,-9.215238 -1.522244,-2.065943 -3.832824,-3.098914 -6.931739,-3.098914 -5.00168,0 -8.2093,2.636778 -9.62279,7.910282 -0.43495,1.5223 -1.33198,2.1747 -2.69115,1.9572 l -11.09071,-1.9572 c -0.81553,-0.16307 -1.38636,-0.51646 -1.71256,-1.06011 -0.27182,-0.54369 -0.29901,-1.277604 -0.0815,-2.201826 1.41352,-5.54538 4.40369,-9.840341 8.97042,-12.884829 4.62116,-3.098864 10.41118,-4.648296 17.370052,-4.648296 8.26367,0 14.54296,2.229017 18.837921,6.687051 4.349386,4.458034 6.523875,10.954773 6.523875,19.49052 v 41.0194 c 0,0.59792 -0.217194,1.11407 -0.652091,1.54897 -0.380728,0.38072 -0.870307,0.57083 -1.468227,0.57083 h -10.601336 c -1.304795,0 -2.120267,-0.70677 -2.446466,-2.1198 l -1.630994,-7.66565 h -0.652398 c -1.467869,3.58803 -3.669699,6.36044 -6.605489,8.31774 -2.881417,1.95729 -6.306477,2.93594 -10.275237,2.93594 z m -1.71256,-22.34485 c 0,2.88177 0.73396,5.1922 2.20183,6.93179 1.5223,1.68542 3.561,2.52813 6.11622,2.52813 3.370736,0 5.953139,-1.49531 7.747208,-4.48543 1.794068,-3.04428 2.691153,-7.39377 2.691153,-13.04744 v -4.3224 c -1.522295,-0.27188 -2.962977,-0.40782 -4.322148,-0.40782 -4.458033,0 -7.991843,1.16876 -10.601433,3.50678 -2.55522,2.28334 -3.83283,5.38231 -3.83283,9.29639 z m 46.156809,-44.852015 c 0,-0.598022 0.190619,-1.087295 0.570836,-1.467869 0.434897,-0.434949 0.951562,-0.652398 1.549483,-0.652398 h 10.764613 c 0.597921,0 1.0875,0.190262 1.467716,0.570836 0.435409,0.380573 0.706773,0.897034 0.815625,1.549431 l 1.63125,7.991847 h 0.652091 c 1.468227,-3.751261 3.560949,-6.605489 6.279699,-8.562682 2.772409,-2.011568 6.034398,-3.017301 9.785455,-3.017301 4.023443,0 7.47554,1.060108 10.356801,3.180426 2.935943,2.120267 5.192199,5.13762 6.768767,9.051955 h 0.652602 c 2.392194,-4.131835 5.083347,-7.203512 8.0734608,-9.21508 2.9901137,-2.011568 6.3333582,-3.017301 10.0302446,-3.017301 4.0234431,0 7.5026256,1.087295 10.4385686,3.261938 2.990113,2.174693 5.273454,5.273556 6.850023,9.296642 1.576568,4.023136 2.365107,8.780181 2.365107,14.271081 v 40.36731 c 0,0.59792 -0.217704,1.11407 -0.652602,1.54897 -0.380727,0.38072 -0.869795,0.57083 -1.467716,0.57083 H 9.5713185 c -0.5979205,0 -1.1145852,-0.19011 -1.5494829,-0.57083 -0.3807272,-0.4349 -0.5708353,-0.95105 -0.5708353,-1.54897 V 109.4647 c 0,-3.96876 -0.7609433,-7.0131 -2.2833409,-9.13337 -1.5223977,-2.120263 -3.7239718,-3.180423 -6.6057443,-3.180423 -3.1531365,0 -5.572415,1.250421 -7.2578354,3.751263 -1.6307387,2.50084 -2.4463637,6.11616 -2.4463637,10.84587 v 36.77927 c 0,0.59792 -0.217704,1.11407 -0.652602,1.54897 -0.380216,0.38072 -0.869796,0.57083 -1.467716,0.57083 h -13.047955 c -0.597921,0 -1.114585,-0.19011 -1.549483,-0.57083 -0.380727,-0.4349 -0.570835,-0.95105 -0.570835,-1.54897 V 109.4647 c 0,-3.96876 -0.760943,-7.0131 -2.283341,-9.13337 -1.522398,-2.120263 -3.723972,-3.180423 -6.605233,-3.180423 -3.153648,0 -5.572926,1.250421 -7.258347,3.751263 -1.630739,2.50084 -2.446364,6.11616 -2.446364,10.84587 v 36.77927 c 0,0.59792 -0.217193,1.11407 -0.652091,1.54897 -0.380727,0.38072 -0.870306,0.57083 -1.468227,0.57083 h -13.047954 c -0.597921,0 -1.114586,-0.19011 -1.549483,-0.57083 -0.380217,-0.4349 -0.570836,-0.95105 -0.570836,-1.54897 z m 97.533104,46.809305 c 0,-4.83855 1.196352,-9.07919 3.588545,-12.7214 2.446364,-3.64271 5.898461,-6.44272 10.356802,-8.40001 4.512,-1.95679 9.785966,-2.93543 15.820364,-2.93543 2.77292,0 5.029176,0.1901 6.768767,0.57083 v -1.7125 c 0,-4.13199 -0.761455,-7.20372 -2.283341,-9.215238 -1.522398,-2.065943 -3.832824,-3.098914 -6.93179,-3.098914 -5.00158,0 -8.209398,2.636778 -9.622943,7.910282 -0.434898,1.5223 -1.331779,2.1747 -2.691154,1.9572 l -11.090659,-1.9572 c -0.815625,-0.16307 -1.38646,-0.51646 -1.712506,-1.06011 -0.271875,-0.54369 -0.29896,-1.277604 -0.08177,-2.201826 1.413546,-5.54538 4.40366,-9.840341 8.970853,-12.884829 4.620852,-3.098864 10.410971,-4.648296 17.369847,-4.648296 8.263568,0 14.542756,2.229017 18.838074,6.687051 4.348977,4.458034 6.523977,10.954773 6.523977,19.49052 v 41.0194 c 0,0.59792 -0.217704,1.11407 -0.652602,1.54897 -0.380727,0.38072 -0.869796,0.57083 -1.467716,0.57083 H 74.321513 c -1.304693,0 -2.120318,-0.70677 -2.446364,-2.1198 l -1.63125,-7.66565 h -0.652091 c -1.468227,3.58803 -3.669801,6.36044 -6.605744,8.31774 -2.881262,1.95729 -6.306273,2.93594 -10.275035,2.93594 -3.968761,0 -7.257835,-0.84271 -10.193778,-2.52813 -2.935943,-1.73959 -5.219284,-4.13178 -6.850023,-7.17658 -1.63125,-3.09845 -2.446875,-6.6594 -2.446875,-10.68285 z m 17.778171,-1.95729 c 0,2.88177 0.733858,5.1922 2.201574,6.93179 1.522397,1.68542 3.560949,2.52813 6.116165,2.52813 3.370841,0 5.953142,-1.49531 7.747414,-4.48543 1.793762,-3.04428 2.691154,-7.39377 2.691154,-13.04744 v -4.3224 c -1.522398,-0.27188 -2.963029,-0.40782 -4.322403,-0.40782 -4.45783,0 -7.991694,1.16876 -10.60108,3.50678 -2.555216,2.28334 -3.832824,5.38231 -3.832824,9.29639 z m 44.852216,8.88908 c 0,-1.19584 0.326046,-2.22917 0.978648,-3.09896 L 124.71906,96.49851 H 98.62315 c -0.597921,0 -1.114586,-0.190262 -1.549483,-0.570836 -0.380216,-0.434948 -0.570836,-0.951409 -0.570836,-1.549431 v -9.459768 c 0,-0.598022 0.19062,-1.087295 0.570836,-1.467869 0.434897,-0.434949 0.951562,-0.652398 1.549483,-0.652398 h 42.89492 c 0.59843,0 1.0875,0.217449 1.46823,0.652398 0.4349,0.380574 0.65209,0.869847 0.65209,1.467869 v 9.867478 c 0,1.196096 -0.32605,2.229017 -0.97865,3.098915 l -25.28028,34.739792 c 1.52239,-0.27136 3.07188,-0.4073 4.64845,-0.4073 3.91459,0 7.50262,0.35313 10.76461,1.05991 3.31616,0.6526 6.74117,1.73959 10.27503,3.26198 1.25053,0.54375 1.87553,1.46772 1.87553,2.77293 v 9.37815 c 0,0.86979 -0.27136,1.46771 -0.81511,1.79376 -0.54375,0.27188 -1.22344,0.24479 -2.03906,-0.0813 -4.07711,-1.52239 -7.69274,-2.5823 -10.84587,-3.18073 -3.09897,-0.65209 -6.4969,-0.97865 -10.19378,-0.97865 -3.69689,0 -7.23075,0.32656 -10.76462,0.97865 -3.47918,0.6526 -7.33909,1.71251 -11.579723,3.18073 -0.815625,0.27188 -1.495313,0.27188 -2.039063,0 -0.543239,-0.32655 -0.815114,-0.89739 -0.815114,-1.7125 z m 52.68089,-21.93704 c 0,-6.63232 1.27761,-12.63993 3.83282,-18.022191 2.55522,-5.43663 6.06148,-9.677216 10.51983,-12.721704 4.51251,-3.098864 9.51409,-4.648296 15.00473,-4.648296 5.49116,0 10.54743,1.549432 15.00525,4.648296 4.51252,3.044488 8.04638,7.285074 10.6016,12.721704 2.60938,5.382261 3.91459,11.389871 3.91459,18.022191 0,6.63283 -1.30521,12.66774 -3.91459,18.10422 -2.55522,5.38231 -6.08908,9.62294 -10.6016,12.72191 -4.45782,3.04428 -9.4594,4.56668 -15.00525,4.56668 -5.54533,0 -10.49222,-1.5224 -15.00473,-4.56668 -4.45835,-3.09897 -7.96461,-7.3396 -10.51983,-12.72191 -2.55521,-5.43648 -3.83282,-11.47139 -3.83282,-18.10422 z m 17.94068,0 c 0,6.90471 0.97865,12.23284 2.93594,15.9839 1.9573,3.69689 4.78388,5.54533 8.48076,5.54533 3.6974,0 6.55158,-1.84844 8.56304,-5.54533 2.01147,-3.75106 3.0172,-9.07919 3.0172,-15.9839 0,-6.90419 -1.00573,-12.20499 -3.0172,-15.90187 -2.01146,-3.751315 -4.86564,-5.626946 -8.56304,-5.626946 -3.69688,0 -6.52346,1.875631 -8.48076,5.626946 -1.95729,3.69688 -2.93594,8.99768 -2.93594,15.90187 z m 49.74494,-31.804055 c 0,-0.598022 0.19062,-1.087295 0.57135,-1.467869 0.4349,-0.434949 0.95105,-0.652398 1.54897,-0.652398 h 10.76462 c 0.59792,0 1.0875,0.190262 1.46822,0.570836 0.4349,0.380573 0.70678,0.897034 0.81512,1.549431 l 1.63125,7.991847 h 0.65209 c 1.46822,-3.696886 3.61563,-6.551114 6.44272,-8.562682 2.88126,-2.011568 6.2521,-3.017301 10.11201,-3.017301 4.13179,0 7.69273,1.087295 10.68285,3.261938 3.04479,2.174693 5.3823,5.273556 7.01355,9.296642 1.63074,4.023136 2.44637,8.780181 2.44637,14.271081 v 40.36731 c 0,0.59792 -0.21771,1.11407 -0.6526,1.54897 -0.38022,0.38072 -0.8698,0.57083 -1.46772,0.57083 H 255.1981 c -0.59793,0 -1.11459,-0.19011 -1.54949,-0.57083 -0.38021,-0.4349 -0.57083,-0.95105 -0.57083,-1.54897 V 109.4647 c 0,-3.96876 -0.81563,-7.0131 -2.44637,-9.13337 -1.63125,-2.120263 -3.94167,-3.180423 -6.93179,-3.180423 -3.31616,0 -5.84429,1.250421 -7.58388,3.751263 -1.7401,2.50084 -2.6099,6.11616 -2.6099,10.84587 v 36.77927 c 0,0.59792 -0.21719,1.11407 -0.65209,1.54897 -0.38072,0.38072 -0.86979,0.57083 -1.46822,0.57083 h -13.04796 c -0.59792,0 -1.11407,-0.19011 -1.54897,-0.57083 -0.38073,-0.4349 -0.57135,-0.95105 -0.57135,-1.54897 z" id="Shape"/>
    <path style="fill:currentColor;fill-rule:nonzero;stroke:none;stroke-width:5.11043167;fill-opacity:1" inkscape:connector-curvature="0" d="m -82.904042,160.02322 c -1.032972,0.81563 -1.250472,2.17449 -0.652398,4.07762 0.543648,1.68542 1.821256,3.77814 3.832824,6.27918 8.100392,10.00367 17.750421,18.32141 28.949933,24.95424 11.199511,6.63283 23.187562,11.52556 35.963642,14.6787 12.8302503,3.20781 25.932376,4.81147 39.306376,4.81147 17.125568,0 33.435512,-2.50054 48.92983,-7.50263 15.494319,-4.94741 28.433425,-11.90628 38.817815,-20.87662 3.64221,-3.20731 5.46357,-5.76253 5.46357,-7.66565 0,-0.70677 -0.29896,-1.41355 -0.89688,-2.12032 -0.81563,-0.81511 -1.79428,-1.08699 -2.93595,-0.81511 -1.14167,0.27136 -2.74532,0.95105 -4.81147,2.03855 -9.948988,5.21928 -22.072465,9.37815 -36.370943,12.47712 -14.243796,3.15313 -29.113108,4.7297 -44.607427,4.7297 -19.1912047,0 -37.7303186,-2.60938 -55.61683,-7.82867 -17.886512,-5.21928 -33.734472,-13.374 -47.54337,-24.46466 -2.011466,-1.57657 -3.642716,-2.58281 -4.892983,-3.01771 -1.196046,-0.4349 -2.174642,-0.35313 -2.935739,0.24479 z" id="Path"/>
    <path style="fill:currentColor;fill-rule:nonzero;stroke:none;stroke-width:5.11043167;fill-opacity:1" inkscape:connector-curvature="0" d="m 98.295571,164.10544 c -1.141671,1.0875 -1.440631,2.22917 -0.896881,3.42552 0.380727,0.86979 1.114585,1.35886 2.202085,1.46771 1.086985,0.16303 2.636475,0.0542 4.647935,-0.32604 3.26199,-0.70677 6.65992,-1.19635 10.19378,-1.46823 3.53387,-0.21719 6.60575,-0.16302 9.21513,0.16302 2.6099,0.38073 4.24064,1.03333 4.89324,1.9573 0.97865,1.46823 0.62501,4.56668 -1.06041,9.2969 -1.63074,4.7297 -3.85991,9.32347 -6.687,13.78181 -1.0875,1.79376 -1.73959,3.20731 -1.9573,4.24064 -0.21719,1.03281 0.0547,1.90261 0.81563,2.60938 0.48906,0.48907 1.03281,0.73386 1.63073,0.73386 1.57708,0 3.86042,-1.38646 6.85054,-4.15887 5.38231,-4.67553 9.16045,-10.22086 11.33545,-16.63599 1.19584,-3.31667 1.9297,-6.79585 2.20157,-10.43857 0.27188,-3.6422 -0.13594,-6.2521 -1.22344,-7.82867 -1.03281,-1.52239 -3.31616,-2.77292 -6.85002,-3.75105 -3.47918,-0.97865 -6.98596,-1.46823 -10.51982,-1.46823 -6.90471,0 -13.45577,1.63125 -19.65319,4.89324 -2.28334,1.25052 -3.995848,2.41928 -5.138029,3.50627 z" id="path6"/>
  </g>
</svg>