<svg fill="currentColor" fill-rule="evenodd" height="1em" style="flex:none;line-height:1" viewBox="0 0 116 24" xmlns="http://www.w3.org/2000/svg"><title>ByteDance</title><path d="M31.574 4.626V7.43h.893c.674 0 .84.015.88.49l.012.53-.013.53c-.04.474-.205.49-.88.49h-.892l.003 5c.018 2.842.164 2.902 1.298 2.902.357 0 .46.137.48.837l.004 1.534-1.428-.179c-.79-.076-1.631-.28-1.912-.408-.693-.382-.96-1.705-.991-5.188l-.003-4.499h-2.958l-3.187 7.266L19.72 24h-2.423l.484-1.198c.28-.688.74-1.785 1.02-2.447l.536-1.25-4.768-11.344c-.102-.255.255-.331 1.25-.331h1.376l2.633 6.613c.738 1.81.936 2.113 1.094 1.82l1.857-4.584 1.53-3.722 4.716-.153V4.626h2.55zm68.557 3.773c.306.229.23.407-.383 1.121l-.765.867-1.121-.612c-2.04-1.07-3.978-.408-4.895 1.657-.587 1.3-.51 2.83.178 4.181.918 1.733 3.34 2.294 5.048 1.147l.892-.612.663.689c.357.382.663.79.663.943 0 .637-3.493 2.065-4.564 1.86l-1.045-.203c-1.886-.383-3.467-1.683-4.181-3.39-.255-.561-.408-1.709-.408-2.83 0-1.657.102-2.014.841-3.238 1.81-3.033 5.94-3.747 9.077-1.58zM42.92 7.455c2.09.561 3.951 3.263 3.951 5.685v.918l-7.175.008c-2.97.039-2.837.26-2.08 1.521 1.25 2.116 4.539 2.346 6.63.46.586-.536 1.172-.409 1.86.433.281.331.23.51-.382 1.147-1.3 1.351-4.181 2.269-5.864 1.86-2.269-.535-3.62-1.503-4.538-3.237-.765-1.453-.74-4.435.026-5.94 1.35-2.6 4.36-3.747 7.572-2.855zm64.604-.28c3.595 0 5.966 2.065 6.323 5.506l.153 1.377h-9.765v.663c0 .433.306.968.893 1.53 1.53 1.452 3.722 1.478 5.685.101l1.096-.765.765.51c.408.306.74.638.74.74 0 .102-.306.484-.689.866-1.402 1.326-4.232 2.116-6.195 1.734-2.932-.586-4.844-3.008-4.844-6.17 0-3.466 2.524-6.067 5.838-6.092zm-34.01.918l.55.367c.508.32.584.263.595-.18l.002-.213c0-.49.078-.61.713-.633L76.7 7.43v11.726h-1.148c-.847 0-1.09-.058-1.137-.363l-.01-.146c0-.638-.127-.638-1.198.025-1.377.867-3.697.918-5.329.153-2.422-1.173-3.62-3.39-3.34-6.297.179-1.963 1.097-3.594 2.55-4.435 1.989-1.173 4.691-1.173 6.425 0zM2 19.182V2l4.892.212c2.05.11 2.655.253 3.496.706 2.498 1.274 3.136 4.563 1.275 6.526-.357.382-.485.663-.306.714 1.3.433 2.6 2.523 2.626 4.155 0 1.351-.97 3.059-2.244 3.951l-1.122.765L2 19.182zM87.995 8.985c.69.928.914 2.167.94 5.644l.003 4.527h-2.294v-3.365l-.02-1.404c-.11-4.106-.676-5.045-2.683-5.045-.994 0-1.274.127-1.912.841l-.74.816v8.157h-2.294V7.43h1.147c.743 0 1.056.075 1.13.289l.018.119c0 .23.076.357.204.306 2.855-1.479 4.946-1.198 6.501.84zm-36.33-6.909c8.285 0 11.778 2.805 11.472 9.203-.255 5.456-3.39 7.877-10.172 7.877H49.93V2.076h1.733zm17.005 7.75c-1.683 1.122-2.244 4.053-1.071 5.787 1.147 1.733 3.646 2.243 5.252 1.07 2.294-1.733 2.192-5.404-.23-6.806-1.045-.612-3.033-.637-3.951-.05zM4.55 11.713v5.2l4.09-.15c1.333-.067 1.473-.209 2.054-.87.459-.51.74-1.096.74-1.58s-.281-1.07-.74-1.58l-.283-.312c-.518-.531-.864-.54-3.159-.606l-2.702-.102zm47.675-7.419v12.62l2.244-.103c1.606-.076 2.498-.255 3.263-.663 2.04-1.045 2.907-2.676 2.907-5.404 0-2.141-.434-3.314-1.632-4.461-1.09-1.066-2.052-1.48-4.23-1.737l-2.552-.252zM39.962 9.342c-1.173.204-2.779 1.606-2.779 2.422l.017.171c.077.273.477.327 2.443.336l4.704.002-.153-.56c-.484-1.58-2.422-2.677-4.232-2.371zm66.568.102c-1.07.306-2.295 1.555-2.295 2.345 0 .402.176.471 2.44.482l4.674.002-.255-.764c-.587-1.683-2.703-2.626-4.564-2.065zM4.55 4.294V9.47h1.657c.918 0 2.04-.153 2.498-.331 1.147-.484 1.53-1.045 1.53-2.243 0-.79-.179-1.199-.663-1.708-.47-.45-.775-.604-1.858-.7L4.55 4.294z"></path></svg>