<svg version="1.1" id="Layer_1" xmlns:x="ns_extend;" xmlns:i="ns_ai;" xmlns:graph="ns_graphs;" xmlns="http://www.w3.org/2000/svg" xmlns:xlink="http://www.w3.org/1999/xlink" x="0px" y="0px" viewBox="0 0 287.1 65" style="enable-background:new 0 0 287.1 65;" xml:space="preserve" fill="currentColor">
 <g>
  <path class="st0" d="M179.8,37.7L172.4,19H166l0.4,0.9l10.9,26.5h4.8L193.4,19h-6.2L179.8,37.7 M246.4,35.7l-12.9-16.7h-5.2v27.2
		h5.8V28.8l13.3,17.2h4.7V18.9h-5.8V35.7z M205.7,18.8l-12,27.4h6l5-11.5l0,0l3.5-8.3l0,0v-0.1l3.2,7.7l-2.2,5h4.3l1.5,3.6l1.4,3.5
		h6.2l-11.9-27.2H205.7z M275.1,18.8H270l-12,27.4h6l5-11.5l0,0l3.5-8.1l0,0l0.1-0.2l3.2,7.7l-2.2,5.1h4.3l1.5,3.6l1.4,3.5h6.2
		L275.1,18.8z">
  </path>
  <path class="st0" d="M99.1,40.2c-1.1,1.1-2.4,2.1-3.8,2.9c-1.5,0.8-3.2,1.2-5,1.1c-1.5,0-3-0.3-4.4-1c-1.3-0.6-2.5-1.4-3.4-2.4
		c-1-1.1-1.8-2.4-2.3-3.8c-0.6-1.4-0.8-3-0.8-4.5l0,0c0-1.5,0.3-3.1,0.8-4.5c0.5-1.4,1.3-2.7,2.3-3.8c1-1,2.1-1.9,3.4-2.5
		c1.4-0.6,2.8-0.9,4.3-0.9c0.9,0,1.9,0.1,2.8,0.3c0.8,0.2,1.6,0.5,2.3,0.8c0.7,0.3,1.3,0.7,1.9,1.2c0.6,0.4,1.1,0.9,1.7,1.4l0.5,0.4
		l1.8-1.9l-0.5-0.4c-0.7-0.6-1.3-1.2-2-1.7c-0.7-0.5-1.5-1-2.3-1.4c-0.9-0.4-1.8-0.7-2.8-0.9c-1.1-0.2-2.2-0.3-3.4-0.3
		c-1.9,0-3.7,0.4-5.4,1.1c-1.6,0.7-3,1.8-4.2,3.1c-1.2,1.3-2.1,2.8-2.8,4.5c-0.7,1.7-1,3.5-1,5.4l0,0c0,1.9,0.3,3.7,1,5.4
		c0.6,1.7,1.5,3.2,2.8,4.5c1.2,1.3,2.6,2.3,4.2,3c1.7,0.7,3.5,1.1,5.3,1.1c1.1,0,2.2-0.1,3.3-0.4c1-0.2,1.9-0.6,2.9-1
		c0.9-0.4,1.7-0.9,2.4-1.5c0.7-0.6,1.4-1.2,2-1.9l0.5-0.5l-1.9-1.7L99.1,40.2 M119.1,18.8l-12.9,27.3h2.6l11.3-23.8l6.3,13.4
		l-1.6,3.4h3.2l3.3,7h2.6l-12.8-27.3H119.1 M153.6,34.7c0.8-0.1,1.6-0.3,2.3-0.6c1-0.4,2-0.9,2.8-1.6c0.8-0.7,1.4-1.5,1.9-2.4
		c0.4-1,0.7-2.1,0.7-3.2l0,0c0-1-0.2-2-0.5-2.9c-0.4-0.9-0.9-1.7-1.5-2.3c-1-0.9-2.1-1.6-3.4-2.1c-1.5-0.5-3-0.7-4.6-0.7h-11.3v27.2
		h2.5V35h8.2l8.4,11.1h3.2L153.6,34.7 M142.4,32.6V21.4h8.7c2-0.1,4,0.4,5.6,1.5c1.3,1,2,2.5,1.9,4.1l0,0c0,0.8-0.2,1.5-0.5,2.3
		c-0.3,0.7-0.8,1.3-1.5,1.8c-0.7,0.5-1.5,0.9-2.4,1.2c-1.1,0.3-2.2,0.5-3.4,0.5L142.4,32.6">
  </path>
 </g>
 <g>
  <path class="st0" d="M40,36.9c-0.1,0-3.1-0.1-7.4-0.1c-4.4,0-7.4,0.1-7.5,0.1c-1,0-0.4,1.5-0.4,1.5c2.3,0.2,5.7,0.2,7.8,0.2
		c2,0,5.4,0,7.8-0.2l0,0.1C40.3,38.4,40.9,37,40,36.9z">
  </path>
  <path class="st0" d="M21.8,35.2c-0.7-0.5-1.5-0.8-2.3-1.1c-0.6-0.1-1.2,0.2-1.4,0.7c-0.2,0.6-0.3,1.3-0.2,2c0,0,0.1,0.5,0.8,0.7
		c1.5,0.3,3,0.5,4.5,0.7C23.3,38.2,23.2,35.9,21.8,35.2z">
  </path>
  <path class="st0" d="M26.7,18.1c2,0.3,4,0.5,6,0.5c1.8,0,3.6-0.1,5.4-0.4c0.8-0.1,1.6-0.3,2.4-0.6h-0.2c-0.5-0.2-1.1-0.4-1.7-0.5
		c-2-0.3-4-0.5-6-0.5v0c-1.8,0-3.6,0.1-5.4,0.4c-0.8,0.1-1.7,0.3-2.4,0.7H25C25.5,17.8,26.1,18,26.7,18.1z">
  </path>
  <path class="st0" d="M22.7,29.8h19.7c0,0,0.5,0,0.3-0.6c-0.8-1.7-1.7-3.3-2.8-4.9c0,0-2.3-0.1-5.3-0.1l0.1,0.2V25c0,0,0,0,0,0
		c0,0.2-0.2,0.3-0.4,0.3h-3.5c-0.2,0-0.4-0.2-0.4-0.4v-0.5v-0.2c-3,0-5.3,0.1-5.3,0.1c-1,1.5-1.9,3.2-2.7,4.9
		C22.2,29.8,22.7,29.8,22.7,29.8z">
  </path>
  <path class="st0" d="M32.5,0C14.6,0,0,14.6,0,32.5C0,50.4,14.6,65,32.5,65C50.4,65,65,50.4,65,32.5c0,0,0,0,0,0
		C65,14.5,50.4,0,32.5,0z M23.7,16.9c0.2-0.2,0.4-0.3,0.7-0.5c0.6-0.3,1.3-0.4,2-0.6c2.1-0.4,4.1-0.5,6.2-0.5c1.9,0,3.8,0.1,5.6,0.4
		c1.2,0.1,2.3,0.5,3.3,1.2c0.2,0.2,0.4,0.5,0.4,0.8c0,0.3-0.2,0.6-0.4,0.8c-0.2,0.2-0.4,0.3-0.7,0.4c-0.6,0.3-1.3,0.5-2,0.6
		c-2,0.3-4.1,0.5-6.2,0.5v0c-1.9,0-3.8-0.1-5.6-0.4c-1.2-0.1-2.3-0.5-3.3-1.1c-0.2-0.2-0.3-0.5-0.4-0.8
		C23.4,17.3,23.5,17.1,23.7,16.9z M47.9,46.2c0,0.3-0.2,0.5-0.4,0.5h-4c0,0,0,0,0,0c-0.3,0-0.4-0.3-0.4-0.5v-0.6H21.9v0.6
		c0,0,0,0,0,0c0,0.3-0.2,0.5-0.4,0.5h-4c0,0,0,0,0,0c-0.3,0-0.4-0.3-0.4-0.5v-5c0,0-0.1-4-0.1-4.9c0-0.6,0.1-1.1,0.3-1.7
		c0.3-0.5,0.6-1,1-1.4c0.7-0.9,1.3-1.8,1.9-2.8h-0.2c0,0-3.5-0.2-2.9-1.4c0,0,0.7-1.4,3.2-1.4h0.3c0.1,0,0.4,0.1,0.4,0.9
		c0.8-1.9,2-3.5,3.6-4.7c0.4-0.2,0.8-0.4,1.2-0.4c0.7-0.2,6.3-0.2,6.7-0.2s6,0.1,6.7,0.2c0.4,0.1,0.8,0.2,1.2,0.4
		c1.6,1.3,2.8,2.9,3.6,4.7c0.1-0.9,0.2-0.9,0.3-0.9h0.4c2.6,0,3.2,1.4,3.2,1.4c0.6,1.2-2.9,1.4-2.9,1.4h-0.2c0.6,1,1.2,1.9,1.9,2.8
		c0.4,0.4,0.7,0.9,1,1.4c0.2,0.5,0.3,1.1,0.3,1.7c0,0.9-0.1,4.9-0.1,4.9L47.9,46.2C47.9,46.2,47.9,46.2,47.9,46.2z">
  </path>
  <path class="st0" d="M46.9,34.9c-0.2-0.5-0.8-0.8-1.4-0.7c-0.8,0.3-1.6,0.6-2.3,1.1c-1.3,0.7-1.5,3-1.5,3c1.5-0.1,3.1-0.4,4.6-0.7
		c0.6-0.2,0.8-0.5,0.8-0.6C47.2,36.2,47.1,35.5,46.9,34.9z">
  </path>
 </g>
</svg>