<svg fill="currentColor" fill-rule="evenodd" height="1em" style="flex:none;line-height:1" viewBox="0 0 24 24" width="1em" xmlns="http://www.w3.org/2000/svg"><title>Kimi</title><path d="M19.738 5.776c.163-.209.306-.4.457-.585.07-.087.064-.153-.004-.244-.655-.861-.717-1.817-.34-2.787.283-.73.909-1.072 1.674-1.145.477-.045.945.004 1.379.236.57.305.902.77 1.01 1.412.086.512.07 1.012-.075 1.508-.257.878-.888 1.333-1.753 1.448-.718.096-1.446.108-2.17.157-.056.004-.113 0-.178 0z"></path><path d="M17.962 1.844h-4.326l-3.425 7.81H5.369V1.878H1.5V22h3.87v-8.477h6.824a3.025 3.025 0 002.743-1.75V22h3.87v-8.477a3.87 3.87 0 00-3.588-3.86v-.01h-2.125a3.94 3.94 0 002.323-2.12l2.545-5.689z"></path></svg>