<svg xmlns:dc="http://purl.org/dc/elements/1.1/" xmlns:cc="http://creativecommons.org/ns#" xmlns:rdf="http://www.w3.org/1999/02/22-rdf-syntax-ns#" xmlns:svg="http://www.w3.org/2000/svg" xmlns="http://www.w3.org/2000/svg" viewBox="0 0 1333.3333 398.01334" height="398.01334" width="1333.3333" xml:space="preserve" id="svg2" version="1.1" xmlns:xlink="http://www.w3.org/1999/xlink">
 <metadata id="metadata8">
  <rdf:RDF>
   <cc:Work rdf:about="">
    <dc:format>
     image/svg+xml
    </dc:format>
    <dc:type rdf:resource="http://purl.org/dc/dcmitype/StillImage">
    </dc:type>
   </cc:Work>
  </rdf:RDF>
 </metadata>
 <defs id="defs6">
 </defs>
 <g transform="matrix(1.3333333,0,0,-1.3333333,0,398.01333)" id="g10">
  <g transform="scale(0.1)" id="g12">
   <path id="path14" style="fill:#232121;fill-opacity:1;fill-rule:nonzero;stroke:none" d="M 8050.11,483.41 H 2000.01 L 2481.94,-0.0117188 Z">
   </path>
   <path id="path16" style="fill:#232121;fill-opacity:1;fill-rule:nonzero;stroke:none" d="m 2209.42,1148.07 c -209,0 -362.03,206.45 -362.03,467.22 0,260.58 153.03,467.05 362.03,467.05 209.25,0 356.74,-206.47 356.74,-467.05 0,-260.77 -147.49,-467.22 -356.74,-467.22 z m 351.04,1290.63 v -73.07 c -112.33,71.76 -213.09,113.52 -351.04,113.52 -423.86,0 -745.85,-387.7 -745.85,-863.86 0,-476.29 321.99,-863.759 745.85,-863.759 137.95,0 238.71,41.571 351.04,113.469 v -73.02 h 372.56 V 2438.7 h -372.56">
   </path>
   <path id="path18" style="fill:#232121;fill-opacity:1;fill-rule:nonzero;stroke:none" d="m 5545.12,2438.7 v -967.35 c 0,-181.45 -124.27,-334.7 -305.3,-334.7 -180.86,0 -305.24,153.25 -305.24,334.7 v 967.35 h -372.59 v -967.35 c 0,-396.92 270.69,-719.819 666.45,-719.819 183.26,0 316.68,101.668 316.68,101.668 V 791.98 h 372.59 V 2438.7 h -372.59">
   </path>
   <path id="path20" style="fill:#232121;fill-opacity:1;fill-rule:nonzero;stroke:none" d="m 9016.88,791.98 v 967.36 c 0,181.45 124.26,334.7 305.29,334.7 180.86,0 305.24,-153.25 305.24,-334.7 V 791.98 H 10000 v 967.36 c 0,396.91 -270.69,719.82 -666.45,719.82 -183.27,0 -316.67,-101.68 -316.67,-101.68 v 61.22 h -372.6 V 791.98 h 372.6">
   </path>
   <path id="path22" style="fill:#232121;fill-opacity:1;fill-rule:nonzero;stroke:none" d="m 389.684,2458.49 h 254.293 c 174.976,0 318.086,-142.78 318.086,-318.65 0,-176.33 -143.11,-319.01 -318.086,-319.01 H 389.684 Z m 0,-1666.51 v 637.98 H 665.305 L 1142.46,791.98 h 487.8 l -576.58,769.82 c 179.68,129.37 297.7,339.74 297.7,578.04 0,391.36 -317.25,709.22 -707.403,709.22 L 0,2849.06 V 791.98 h 389.684">
   </path>
   <path id="path24" style="fill:#232121;fill-opacity:1;fill-rule:nonzero;stroke:none" d="m 6921.92,1181.63 c -33.46,-22.77 -75.7,-40.5 -124.59,-40.5 -60.87,0 -175.64,46.65 -175.64,202.04 v 704.69 h 318.64 v 390.86 h -318.64 l -0.03,410.36 h -372.59 l 0.02,-410.36 h -197.11 v -390.86 h 197.11 v -710.4 c -0.1,-367.71 276.09,-587.351 553.94,-587.351 103.53,0 247.22,34.012 364.47,103.653 l -245.58,327.868">
   </path>
   <path id="path26" style="fill:#232121;fill-opacity:1;fill-rule:nonzero;stroke:none" d="m 3859.35,1666.81 639.11,771.89 h -522.3 l -447,-573.66 V 2985.07 H 3145.48 V 791.98 h 383.68 v 676.44 l 549.53,-676.44 h 522.03 l -741.37,874.83">
   </path>
   <path id="path28" style="fill:#232121;fill-opacity:1;fill-rule:nonzero;stroke:none" d="m 8107.81,1827.89 h -671.06 c 78.42,385.69 598.46,407.82 671.06,0 z m -325.26,652.6 c -431.23,0 -740.57,-380.12 -740.57,-865.15 0,-509.99 388.27,-865.281 777.59,-865.281 196.51,0 448.32,67.589 659.85,368.621 l -329.08,190.64 C 7895.82,932.98 7471.65,1123.99 7422.68,1500.3 l 1073.26,-0.24 c 91.82,591.45 -289.44,980.43 -713.39,980.43">
   </path>
  </g>
 </g>
</svg>