<svg width="612" height="144" viewBox="0 0 612 144" fill="none" xmlns="http://www.w3.org/2000/svg">
<path d="M38.4082 51.0957C38.2324 51.5337 38.074 51.9778 37.9326 52.4268C37.8382 52.7264 37.7517 53.0283 37.6729 53.332C37.6335 53.4836 37.596 53.6356 37.5605 53.7881C37.525 53.941 37.4907 54.0943 37.459 54.248C37.2061 55.476 37.0787 56.73 37.0801 57.9902C37.0804 76.1002 78.0401 103.5 124.8 103.47C125.123 103.47 125.446 103.468 125.767 103.464C126.408 103.456 127.045 103.442 127.676 103.419C129.254 103.362 130.799 103.258 132.306 103.108C132.607 103.078 132.907 103.047 133.205 103.014C142.151 102.004 149.676 99.3331 154.668 95.1621C154.834 95.023 154.998 94.8826 155.159 94.7402C155.32 94.5979 155.478 94.4542 155.633 94.3086C155.943 94.0174 156.241 93.7195 156.527 93.415C159.536 90.2172 161.23 86.2939 161.23 81.7002C161.23 80.7552 161.23 79.9784 160.071 74.3125L159.52 71.5703C179.349 80.1902 190.349 94.6297 190.35 107.35C190.35 123.52 178.93 144 133.65 144C74.5904 144 0 105.2 0 73.7197C0.000207427 54.5 21.7699 51.5002 38.5898 50.6602C38.5275 50.8047 38.4668 50.9498 38.4082 51.0957ZM97.0098 0C103.26 0 124.39 8.19039 134.09 13.1504C146.59 19.4004 148.1 22.63 149.82 29.75L157.27 62.1104C157.482 63.0929 157.589 64.0951 157.587 65.0996C157.586 65.2297 157.584 65.3601 157.58 65.4902C157.58 80.3699 139.48 82.9502 126.97 82.9502C123.93 82.9502 120.938 82.8321 118 82.6084C116.899 82.5245 115.805 82.4254 114.719 82.3125C108.564 81.6727 102.663 80.5774 97.0723 79.1465C95.7567 78.8098 94.4583 78.4543 93.1777 78.082C92.5379 77.896 91.9023 77.7061 91.2715 77.5117C90.6402 77.3172 90.0136 77.1184 89.3916 76.916C88.7698 76.7137 88.1525 76.5077 87.54 76.2979C86.3148 75.878 85.1084 75.4437 83.9219 74.9961C81.5493 74.101 79.2558 73.1534 77.0469 72.166C75.9424 71.6723 74.8592 71.1683 73.7979 70.6562C66.8992 67.3278 60.9266 63.644 56.0811 60.0342C55.3355 59.4787 54.6163 58.9254 53.9248 58.375C53.2334 57.8247 52.5695 57.2775 51.9336 56.7354C49.7079 54.8378 47.8271 52.9999 46.3223 51.2891C45.2474 50.0671 44.3643 48.9099 43.6846 47.8418C43.5487 47.6283 43.4213 47.4181 43.3018 47.2119C42.8831 46.4898 42.5648 45.814 42.3516 45.1924C42.2907 45.015 42.238 44.8421 42.1943 44.6738C42.1505 44.5051 42.1162 44.3409 42.0898 44.1816C42.0503 43.9433 42.0303 43.7159 42.0303 43.5C42.0085 42.8592 42.0824 42.2184 42.25 41.5996L42.2236 41.6641C42.2324 41.6294 42.2406 41.5941 42.25 41.5596C43.3284 38.1249 51.7073 14.4932 51.7402 14.4004C54.7602 5.99043 58.67 1.90043 64.6699 1.90039C70.9198 1.90039 75.8798 7.49976 82.5596 7.5C89.4995 7.5 91.19 0.000203185 97.0098 0Z" fill="black"/>
<path d="M579.24 92.36C579.24 104.25 586.39 110.03 599.43 110.03C603.445 109.93 607.435 109.366 611.32 108.35V94.56C608.837 95.347 606.245 95.7384 603.64 95.72C598.27 95.72 596.28 94.04 596.28 88.99V67.86H611.84V53.66H596.28V35.66L579.28 39.34V53.66H567.99V67.86H579.24V92.36ZM526.24 92.68C526.24 89 529.93 87.21 535.5 87.21C538.905 87.2298 542.295 87.6527 545.6 88.47V95.62C542.343 97.399 538.681 98.3051 534.97 98.25C529.51 98.25 526.24 96.15 526.24 92.68ZM531.44 110.24C537.44 110.24 542.28 108.98 546.8 105.93V109.3H563.62V73.64C563.62 60.08 554.48 52.64 539.23 52.64C530.71 52.64 522.29 54.64 513.23 58.74L519.33 71.26C525.85 68.52 531.33 66.84 536.16 66.84C543.16 66.84 546.78 69.57 546.78 75.15V77.88C542.659 76.8132 538.417 76.2821 534.16 76.3C519.85 76.3 511.23 82.3 511.23 93.03C511.23 102.81 519.01 110.27 531.42 110.27L531.44 110.24ZM438.98 109.33H457.07V80.48H487.36V109.3H505.5V35.68H487.43V63.97H457.14V35.68H439.05L438.98 109.33ZM370.12 81.43C370.12 73.43 376.43 67.33 384.74 67.33C389.063 67.2423 393.261 68.7845 396.5 71.65V91.1C394.931 92.5825 393.084 93.7398 391.066 94.5053C389.047 95.2707 386.897 95.6292 384.74 95.56C376.54 95.56 370.12 89.46 370.12 81.47V81.43ZM396.73 109.34H413.56V32L396.56 35.68V56.61C392.232 54.1566 387.334 52.8873 382.36 52.93C366.17 52.93 353.44 65.44 353.44 81.43C353.393 85.1818 354.095 88.9054 355.503 92.3832C356.911 95.8611 358.998 99.0235 361.642 101.686C364.286 104.348 367.434 106.458 370.902 107.89C374.369 109.323 378.088 110.05 381.84 110.03C387.205 110.056 392.437 108.363 396.77 105.2L396.73 109.34ZM319.5 66.56C324.86 66.56 329.38 70.03 331.17 75.39H307.97C309.65 69.86 313.86 66.56 319.5 66.56ZM290.83 81.56C290.83 97.76 304.08 110.38 321.11 110.38C330.47 110.38 337.31 107.85 344.36 101.96L333.1 91.96C330.47 94.7 326.58 96.17 321.96 96.17C319.055 96.2518 316.193 95.452 313.751 93.8759C311.309 92.2997 309.402 90.0211 308.28 87.34H347.93V83.11C347.93 65.44 336.05 52.72 319.85 52.72C316.042 52.6625 312.261 53.3671 308.729 54.7922C305.197 56.2173 301.985 58.3342 299.283 61.0184C296.581 63.7026 294.444 66.9 292.995 70.4225C291.547 73.945 290.818 77.7215 290.85 81.53L290.83 81.56ZM261.5 51.14C267.5 51.14 270.86 54.92 270.86 59.45C270.86 63.98 267.5 67.76 261.5 67.76H243.61V51.14H261.5ZM225.5 109.3H243.59V82.48H257.36L271.25 109.3H291.5L275.3 79.85C279.417 78.1756 282.939 75.3077 285.412 71.6152C287.886 67.9226 289.198 63.5744 289.18 59.13C289.18 45.88 278.77 35.68 263.18 35.68H225.5V109.3Z" fill="black"/>
</svg>
