<?xml version="1.0" encoding="UTF-8"?>
<svg id="uuid-174b3920-4ead-4d4d-9f4d-0870b9a97df0" data-name="图层 1" xmlns="http://www.w3.org/2000/svg" viewBox="0 0 32.2 23.3">
  <defs>
    <style>
      .uuid-d58c5739-b5c9-4bc7-9da6-a3d240f3c5a8 {
        fill: #3fff00;
      }

      .uuid-d58c5739-b5c9-4bc7-9da6-a3d240f3c5a8, .uuid-31ed79b8-c388-427b-acc8-67d37abbf1c2 {
        stroke-width: 0px;
      }

      .uuid-31ed79b8-c388-427b-acc8-67d37abbf1c2 {
        fill: #fff;
      }
    </style>
  </defs>
  <ellipse class="uuid-31ed79b8-c388-427b-acc8-67d37abbf1c2" cx="22" cy="3.2" rx="1.1" ry=".8" transform="translate(4.2 16.5) rotate(-45)"/>
  <ellipse class="uuid-31ed79b8-c388-427b-acc8-67d37abbf1c2" cx="29" cy="3.2" rx=".8" ry="1.1" transform="translate(6.2 21.5) rotate(-45)"/>
  <g>
    <path class="uuid-d58c5739-b5c9-4bc7-9da6-a3d240f3c5a8" d="m9.9,2.4v6.3h-1.6v-.6h-2.1v3.7h-1.7v-3.7h-2.1v.6H.9V2.4h3.6V.3h1.7v2.1h3.7Zm-5.4,4v-2.3h-2.1v2.3h2.1Zm3.7,0v-2.3h-2.1v2.3h2.1Z"/>
    <path class="uuid-d58c5739-b5c9-4bc7-9da6-a3d240f3c5a8" d="m19.4,4c-.5,1.7-1.2,3-2.1,4.1,1.1.9,2.4,1.5,3.9,1.9-.4.4-.8,1.2-1.1,1.6-1.7-.5-3-1.2-4.1-2.2-1.2,1-2.6,1.8-4.3,2.3-.2-.4-.6-1.2-.9-1.7,1.6-.4,3-1,4.1-1.9-.9-1.2-1.6-2.6-2.1-4.2h-1.7v-1.7h4.4c-.1-.5-.3-1.1-.5-1.6l1.7-.6c.3.6.6,1.3.7,1.8l-.9.3h4.5v1.7h-1.6Zm-5,0c.4,1.1,1,2.1,1.7,3,.6-.8,1.1-1.8,1.5-3h-3.2Z"/>
    <path class="uuid-d58c5739-b5c9-4bc7-9da6-a3d240f3c5a8" d="m31.7,3.7c-.2,2.2-.6,3.9-1.2,5.3.4.6.9,1.1,1.4,1.5-.3.3-.8,1-1,1.4-.5-.4-.9-.9-1.3-1.4-.5.6-1,1-1.6,1.4-.1-.3-.4-.8-.7-1.1-.1.4-.3.9-.5,1.2-.2-.3-.8-.7-1.1-.9v.7h-1.4v-4.1h-.7c0,1.6-.3,3.2-.9,4.3-.2-.3-.8-.9-1.1-1.1.6-1.4.7-3.8.7-5.5V.7h1.4v2.8h.5V.3h1.4v3.1h.6v1.5h-2.5v.3c0,.3,0,.5,0,.8h2v4.6c.7-1.6.7-4.1.7-5.7V1c1.6,0,3.3-.3,4.5-.6l.8,1.6c-1.2.3-2.6.4-3.9.5v1.1h2.8s.9.2.9.2Zm-2.9,5.1c-.3-.7-.6-1.5-.8-2.4,0,1.2-.2,2.5-.4,3.7.5-.3.9-.8,1.2-1.3Zm.1-3.7c.2.7.4,1.5.7,2.1.2-.7.4-1.4.5-2.1h-1.2Z"/>
  </g>
</svg>