<svg width="115" height="121" viewBox="0 0 115 121" fill="none" xmlns="http://www.w3.org/2000/svg">
<path d="M114.317 68.0068L107.099 53.5136V45.1668C107.099 31.3312 95.9942 20.1262 82.2992 20.1262H69.9623C70.8552 18.2924 71.3456 16.231 71.3456 14.0557C71.3456 6.36649 65.1583 0.144287 57.5123 0.144287C49.8662 0.144287 43.6789 6.36649 43.6789 14.0557C43.6789 16.231 44.1693 18.2924 45.0622 20.1262H32.7254C19.0303 20.1262 7.9259 31.3312 7.9259 45.1668V53.5136L0.556479 67.9689C-0.185493 69.4232 -0.185493 71.1558 0.556479 72.6102L7.9259 86.9011V95.2479C7.9259 109.083 19.0303 120.289 32.7254 120.289H82.2992C95.9942 120.289 107.099 109.083 107.099 95.2479V86.9011L114.305 72.5596C115.021 71.1306 115.021 69.4485 114.317 68.0068ZM49.9668 79.8189C49.9668 86.1043 44.8987 91.201 38.6486 91.201C32.3984 91.201 27.3303 86.1043 27.3303 79.8189V59.5841C27.3303 53.2986 32.3984 48.202 38.6486 48.202C44.8987 48.202 49.9668 53.2986 49.9668 59.5841V79.8189ZM86.4366 79.8189C86.4366 86.1043 81.3685 91.201 75.1184 91.201C68.8682 91.201 63.8002 86.1043 63.8002 79.8189V59.5841C63.8002 53.2986 68.8682 48.202 75.1184 48.202C81.3685 48.202 86.4366 53.2986 86.4366 59.5841V79.8189Z" fill="white"/>
</svg>
