<svg width="24" height="24" viewBox="0 0 24 24" fill="none" xmlns="http://www.w3.org/2000/svg">
<path d="M18.8268 7.86347C16.2857 7.42956 15.4726 5.40709 15.204 4.14212C15.1749 4.01709 15.0152 4.02445 14.9934 4.14947C14.5651 6.72353 12.5685 7.54723 11.3198 7.81935C11.1964 7.84877 11.2036 8.01056 11.3271 8.03263C13.8681 8.46654 14.6812 10.489 14.9499 11.754C14.9789 11.879 15.1386 11.8717 15.1604 11.7466C15.5888 9.17257 17.5853 8.34887 18.8341 8.07675C18.9575 8.04734 18.9502 7.88554 18.8268 7.86347Z" fill="#354A5F"/>
<path fill-rule="evenodd" clip-rule="evenodd" d="M6.61539 0C6.24461 0 5.89359 0.169326 5.65988 0.460917L0.275266 7.17927C-0.0783085 7.62043 -0.0926737 8.24795 0.240335 8.70524L11.0096 23.4934C11.2416 23.812 11.6092 24 12 24C12.3908 24 12.7584 23.812 12.9904 23.4934L23.7597 8.70524C24.0927 8.24795 24.0783 7.62043 23.7247 7.17927L18.3401 0.460917C18.1064 0.169326 17.7554 0 17.3846 0H6.61539ZM2.78681 8.00166L7.20147 2.49351H16.7985L21.2132 8.00166L12 20.6531L2.78681 8.00166Z" fill="#354A5F"/>
</svg>
