<svg width="32" height="33" viewBox="0 0 32 33" fill="none" xmlns="http://www.w3.org/2000/svg">
<rect x="-0.00878906" y="0.531799" width="31.9581" height="31.8725" rx="5.33333" fill="#FF563F"/>
<ellipse cx="18.152" cy="18.5582" rx="7.78919" ry="8.00189" fill="#0C0C0C"/>
<path fill-rule="evenodd" clip-rule="evenodd" d="M10.3163 19.6559C12.7579 22.0975 16.7165 22.0975 19.1581 19.6559C21.5997 17.2143 21.5997 13.2557 19.1581 10.8141C16.7165 8.37249 12.7579 8.37249 10.3163 10.8141C7.87469 13.2557 7.87469 17.2143 10.3163 19.6559ZM20.4451 20.9429C17.2927 24.0953 12.1817 24.0953 9.02932 20.9429C5.87694 17.7905 5.87694 12.6795 9.02932 9.52713C12.1817 6.37475 17.2927 6.37475 20.4451 9.52713C23.5975 12.6795 23.5975 17.7905 20.4451 20.9429Z" fill="#F5F5F5"/>
</svg>
