 <svg  version="1.0" xmlns="http://www.w3.org/2000/svg"  width="200.000000pt" height="200.000000pt" viewBox="0 0 200.000000 200.000000"  preserveAspectRatio="xMidYMid meet">  <g transform="translate(0.000000,200.000000) scale(0.100000,-0.100000)" fill="#ffffff" stroke="none"> <path d="M855 1989 c-226 -33 -479 -175 -622 -351 -136 -165 -233 -420 -233 -609 l0 -29 224 0 223 0 6 58 c6 67 40 171 75 227 62 101 176 193 292 236 94 34 266 34 360 0 85 -31 161 -80 221 -143 l48 -50 175 128 c97 70 176 131 176 135 0 18 -102 127 -171 182 -220 176 -502 255 -774 216z"/> <path d="M1016 992 c5 -5 105 -73 222 -152 116 -79 212 -149 212 -155 0 -20 -94 -112 -152 -149 -97 -62 -167 -81 -298 -81 -95 0 -126 4 -179 23 -83 30 -161 81 -222 144 l-48 50 -30 -18 c-17 -11 -98 -68 -181 -127 l-151 -108 23 -32 c73 -104 232 -228 375 -293 136 -63 247 -86 408 -87 161 -1 259 19 406 82 332 143 560 462 594 834 l7 77 -498 0 c-274 0 -494 -4 -488 -8z"/> </g> </svg> 