<?xml version="1.0" encoding="UTF-8"?>
<svg id="uuid-5c40da8d-f00d-4ba5-9966-b3e992c41c67" data-name="图层 1" xmlns="http://www.w3.org/2000/svg" viewBox="0 0 28.5 28.5">
  <defs>
    <style>
      .uuid-d6e80dd8-a2ac-4e67-8689-d9e15d9bc986 {
        fill: #3fff00;
      }

      .uuid-d6e80dd8-a2ac-4e67-8689-d9e15d9bc986, .uuid-6361f848-3c5a-4e30-b006-69248c013e4f, .uuid-045a77e8-0501-49ec-93ec-1defee2c4753 {
        stroke-width: 0px;
      }

      .uuid-045a77e8-0501-49ec-93ec-1defee2c4753 {
        fill: #fff;
      }
    </style>
  </defs>
  <g>
    <path class="uuid-045a77e8-0501-49ec-93ec-1defee2c4753" d="m5.3,28.5c-1.8,0-3.5,0-5.3,0,0-9.5,0-19,0-28.5h28.5v28.5h-5.2c1.5-4.8-3.3-6.1-5.5-8.9,2.5-1.4,3.6-4.7,7.2-3.7.4.1,1.8-1.2,1.7-1.6-.7-3.4,1.3-7.9-4.3-9.6-1,1.3-2,2.8-2.8,3.9-1.3-.6-2.9-2-4.1-1.7-2.4.5-4.7,2-6.2,2.7-1.4-1.4-2.7-3.8-4.3-4-2.3-.3-3.1,1.9-2.2,4.2,0,.1-.2.4-.4.6-2.7,2.6,2,4.4.8,6.8.6.2,1.4.7,1.7.5,3-1.8,4.3.7,5.5,1.5-1.8,3.4-3.5,6.4-5.1,9.4Z"/>
    <path class="uuid-6361f848-3c5a-4e30-b006-69248c013e4f" d="m5.3,28.5c1.6-3,3.3-6,5.1-9.4-1.2-.8-2.5-3.3-5.5-1.5-.3.2-1.1-.3-1.7-.5,1.2-2.4-3.5-4.2-.8-6.8.2-.2.4-.5.4-.6-.8-2.2,0-4.4,2.2-4.2,1.6.2,2.9,2.6,4.3,4,1.5-.7,3.7-2.2,6.2-2.7,1.2-.3,2.8,1.1,4.1,1.7.8-1.1,1.9-2.6,2.8-3.9,5.6,1.8,3.6,6.3,4.3,9.6,0,.4-1.3,1.7-1.7,1.6-3.6-1.1-4.7,2.3-7.2,3.7,2.2,2.8,7,4.2,5.5,8.9H5.3Z"/>
  </g>
  <ellipse class="uuid-045a77e8-0501-49ec-93ec-1defee2c4753" cx="11" cy="13" rx="1.1" ry=".8" transform="translate(-6 11.6) rotate(-45)"/>
  <ellipse class="uuid-045a77e8-0501-49ec-93ec-1defee2c4753" cx="18" cy="13" rx=".8" ry="1.1" transform="translate(-3.9 16.5) rotate(-45)"/>
  <g>
    <path class="uuid-d6e80dd8-a2ac-4e67-8689-d9e15d9bc986" d="m11.7,22.3s0,0,0,0,0,0,0,0h-.1v.6c0,.2,0,.3,0,.5h0c0,0,0,0-.1.1,0,0,0,0,0,0,0,0,0,0,0,0v-.2h-1.2v.6c0,.3,0,.6,0,.7h0c0,0,0,0-.1.1,0,0,0,0,0,0,0,0,0,0,0,0h0c0-.3,0-.6,0-.8v-.6h-1.2v.2c0,0,0,0,0,0,0,0,0,0,0,0s0,0,0,0h0c0-.2,0-.4,0-.5v-.6c0,0,0-.3,0-.4l.3.2h1.1v-.3c0-.2,0-.4,0-.5l.3.2s0,0,0,0,0,0,0,0h-.1v.6h1.1v-.2c.1,0,.4.2.4.2Zm-1.7,1.1v-1h-1.2v1h1.2Zm1.4,0v-1h-1.2v1h1.2Z"/>
    <path class="uuid-d6e80dd8-a2ac-4e67-8689-d9e15d9bc986" d="m16,24.7c-.3,0-.4,0-.4.1,0,0,0,0,0,0,0,0-.8-.3-1.3-.8-.4.4-1,.7-1.8.9h0c.8-.3,1.4-.7,1.7-1.1-.3-.4-.6-.9-.7-1.5h-.8c0,0-.2,0-.3,0h-.1c.1-.1.2-.1.3-.1h3l.2-.2.3.2s0,0,0,0,0,0,0,0h-1c-.1.6-.3,1.1-.7,1.5.4.4,1,.6,1.7.8h0Zm-2.5-2.4c.2.6.4,1.1.7,1.4.3-.4.5-.9.5-1.4h-1.2Zm.3-.9c.3.1.6.3.6.5s0,.2-.2.2,0,0-.1-.2c0-.1-.1-.3-.4-.5h0Z"/>
    <path class="uuid-d6e80dd8-a2ac-4e67-8689-d9e15d9bc986" d="m18.2,22.6s0,0,0,0,0,0,0,0h-1.2c0,.2,0,.4,0,.6h.6c0-.1.2,0,.2,0,0,0,0,0,0,0s0,0-.1,0v.9c0,.1,0,.2,0,.4h0c0,0,0,0,0,.1,0,0,0,0,0,0s0,0,0,0c0,0,0-.3,0-.4v-1h-.5c0,.6-.1,1.1-.6,1.5h0c.3-.5.5-.8.5-2.7s0-.4,0-.5l.3.2s0,0,0,0c0,0,0,0-.1,0,0,.3,0,.4,0,.6h.5v-.6c0-.2,0-.4,0-.5l.3.2s0,0,0,0,0,0-.1,0v.9h.1l.2-.2.2.2Zm2.1,2.1c-.2,0-.3,0-.4.1,0,0,0,0,0,0,0,0-.4-.3-.7-.6-.3.3-.6.5-1.2.7h0c.5-.3.9-.6,1.2-.9-.2-.3-.3-.8-.4-1.4h-.2c0,1.3-.2,1.6-.7,2.1h0c.4-.5.5-1,.5-2.6s0-.3,0-.4l.3.2c.5-.1.9-.2,1.3-.4l.2.2s0,0,0,0,0,0,0,0-.1,0-.1,0c0,0-.1,0-.2,0-.4,0-.8.1-1.2.2,0,.2,0,.4,0,.6h1.2c0-.1.2,0,.2,0,0,0,0,0,0,0s0,0,0,0c0,0,0,0-.1.1-.1.5-.3.9-.5,1.2.3.3.5.4,1,.6h0Zm-1.5-2c0,.5.2.9.4,1.2.2-.3.3-.7.4-1.2h-.8Z"/>
  </g>
</svg>