<?xml version="1.0" encoding="UTF-8"?>
<svg id="a" data-name="图层 1" xmlns="http://www.w3.org/2000/svg" width="31.411332861582746mm" height="14.477999782562243mm" viewBox="0 0 89.040000000000873 41.039999999999964">
  <defs>
    <style>
      .b, .c {
        stroke-width: 0px;
      }

      .c {
        fill: #fff;
      }
    </style>
  </defs>
  <path class="c" d="m89.040000000000873,33.840000000000146v7.199999999999818H0V0h89.040000000000873v31.680000000000291h-6.905024414063519v-2.168494262695276h5.861799316406177v-2.212263793945567h-5.851955566406104v-2.202676391601017c1.820178222656978-.311189575195385,3.570153808594114-.610376586914754,5.442978515624418-.930565795898474-.356293945311336-.391957397460828-.719494628905522-.638272705078634-.86089599609295-.977135009766243-.35748779296955-.856710205078343-.864147949218022-.837667236328343-1.691630859375437-.668422851562354-1.7626904296867.360527343749709-3.563613281248763.545824584961338-5.354685058593532.752636718750182-1.900283203125582.219424438476381-3.807290039061627.380592041015916-5.770605468749636.573008422851672.227065429688082.666567993163881.423068847656396,1.241936645507849.630109863281177,1.849714965819658,1.816479492186772-.099704589842986,3.573676757812791-.196157226561809,5.316437988281905-.291815185546511v1.980838623047021h-5.844382324219623v2.170356445312791h5.832062988281905v2.170345458984229h-7.065146484375873v2.131080322265916h7.140476074218896c0,.880426025390079-.029890136718677,1.634132080077507.008452148438664,2.384351806640552.037939453124636.742232666015298-.291350097657414.994925537109339-.999763183594041.967115478515552-.894389648437937-.035104980469441-1.79120361328205-.008470458984448-3.0658007812508-.008470458984448.685371093750291.896286621093168,1.049904785157196,1.835910644531396,1.681193847656687,2.076968994140771.7270458984367.277628173827907,1.70928955078125.028286132812354,2.546110839843095-.152384033202907,1.723593750000873-.372139892579071,1.980014648437646-.74896728515705,1.989389648437282-2.488498535156396.004877929688519-.905247802735175.000849609376019-1.810539550781868.000849609376019-2.795690917969296h6.960029296875291Zm-28.484677734375509-16.119638671874782c.450699462890043-.634147338867479.871127929687646-1.225700683594368,1.291552734375728-1.817254028320349l-.31616455078256.254624633788808c-.696679687500364-.908703002929542-1.393359374998909-1.817406005859084-1.931953125000291-2.519915771484193.734333496095132-2.537677917480323,1.451118164062791-5.01470947265625,2.258466796874927-7.804700317383322h-6.564107666014024v-2.161410827636246c2.226503906249491-.277036972045607,4.357023925780595-.542131118774705,6.526343994139097-.812052841186414-.252553710935899-.496552734374745-.402758789061409-.962953033447775-.694482421873545-1.310592384338634-.227768554688737-.271428909301903-.656396484375364-.591548423766653-.95276000976628-.553656921386391-2.280787353514825.291614341736022-4.551071777343168.665389366149611-6.892218017577761,1.02402706146222,0,1.641995544433485.031201171874272,3.237354583739943-.008693847656104,4.83093383789037-.040671386719623,1.624549255371676-.072593994140334,3.256218566894859-.254381103515698,4.868302917480833-.166237792969696,1.47424346923799-.527658691406032,2.926476745605214-.803067626953634,4.388409118651907l-.419150390625873-.078195190429142v-6.687425537109448h-3.464545898435972v-1.933121337890952h4.159035644530377v-1.810677337646666c-.405988769531177-.062138214110746-.741317138672457-.113460845946975-1.152377929687646-.176375427246057V.789760665893482h-1.928151855468968v4.760795974731991c-.464208984374636-.050877685546766-.797233886718459-.087377471923901-1.209243164061263-.132534027099609V1.280493164063046h-1.838280029298403c-.240183105468532,5.070968627929688.521890869142226,10.14062072753859-1.031506347655522,14.763473510742188.489741210938519.640286865233975.897147216797748,1.172922363281032,1.498004150391353,1.958474121093786.440562744139243-1.915638427734848.936840820311772-3.489839172363645,1.136923828124054-5.100826721191879.218294677733866-1.75762756347649.122109375000946-1.791496582030959,1.955434570312718-1.465706176757521v6.049745178222111h1.837624511719696c.056887207030741-.282009887694585.107486572263952-.532868041991605.173408203123472-.859674682616969.556094970703271.385332641601963,1.048516845703489.726547851562827,1.602121582032851,1.110155639648838.239340820311554-.530985717773547.439665527343095-.975417480469332.718253173827179-1.593477172851635.429825439452543.583720092773547.767687988281978,1.042556762695312,1.134506835936918,1.540713500976381.870054931641789-.750997924804324,1.790035400390479-1.545093383789208,2.690104980469187-2.321997070312136.830456542969841.79015869140585,1.620435791015552,1.541801147460319,2.479302978515989,2.358988037109157Zm5.061276855469259,19.479678955078271c.184592285155304.682716064452507.351005859374709,1.298203124999418.519118652342513,1.919948730467695.52008544921955,0,.958879394531323.001354980469841,1.397666015625873-.00024169921744,1.566613769531614-.005701904297894,2.385168457030886-.568487548828671,2.7075146484367-2.024241943359812.194626464844987-.878957519531468.246760253907269-1.793712158203562.311022949219478-2.696077880859775.062145996093022-.872698974609193.073740234374782-1.750030517578125.079313964843095-2.625509033202434.011242675782341-1.769392089843677.003347167968968-3.538906860351744.003347167968968-5.440356445313228h-3.725939941405159v-3.688377685546584h-2.132849121095205v3.765611572265698h-2.291960449218095v1.930339965820167h2.375134277343022c-.3896484375,2.384957885742551-.460634765624491,4.726104125977145-1.833713378906396,6.728080444336229-.159082031248545-.504616699218786-.217390136718677-1.261259765625255-.44793457031119-1.317996826172021-.825270996094332-.203089599609484-.654067382813082-.757617187499818-.65490966797006-1.277746582030886-.004885253905741-3.027203979492697-.002395019530013-6.054418945313046-.002395019530013-9.118401489257849h-6.240021972656905c0,3.54626037597609-.024770507812718,7.018357543945058.017307128906396,10.489645385741824.010609130858938.875108642578198-.139130859375655,1.479576416015334-1.29113891601628,1.481623535156359.145821533204071.765421142577907.272980957031905,1.432877197265043.422281494142226,2.216564941406432,2.552127685545202-.612092285156905,4.995893554687427-1.198194580078052,7.439655761718313-1.784296875000109.141181640625291.166387939452761.282363281248763.332779541015043.423552246093095.499167480468714-.723105468749054.507861328124818-1.446210937499927,1.015722656249636-2.114102783203634,1.484809570311882.300296630859521.269282226562609.575427246094478.491920166015916.821209716797966.743254394531505.239941406249272.245357666015479.449897460937791.520026855468132.658461914061263.764743652344805,3.974084472656614-2.536669921875728,4.442966308593896-6.730078125000546,4.974624023438082-10.839093017579216h1.359968261718677c0,2.470850830078234.042092285157196,4.851968994140407-.018508300780013,7.230465087890479-.028491210938228,1.118302001953452-.57196289062631,1.834987792969514-1.869770507813882,1.566079101562536-.266323242187354-.055180664062391-.553864746092586-.00799438476497-.886933593748836-.00799438476497Zm-38.344552001954071-8.450015258788881h7.201907958984521v-4.515064086914208h-2.9022802734371c-.358901367188082-.687886962890843-.682159423828125-1.307462768554615-1.030118408203634-1.974382324218823-.700048828124636.240626220703234-1.340548095702616.460783081054615-1.986895751952943.682950439452725.181739501953416.443708496093677.326149291991896.796274414062282.545674438476453,1.332231445312573h-3.879594726562573c-.100777587890661,3.763798828124891.299337158203343,7.420979003906723-.996123046875255,11.108785400390843-.213566894530231-.558742675781104-.351004028319949-.918303222656505-.478932495116169-1.252998046875291-1.849257202148692.737753906249964-3.577688598633358,1.427303466796729-5.323410644531577,2.123752441406396.237163696288917.719560546875073.420210571289317,1.274930419921475.597185668944803,1.811876220703198,1.695754394531832-.737629394531723,3.279860229492442-1.426691894531359,5.143467407227035-2.237336425780995-.367512817382703.788781738280704-.58057067871141,1.246062011718095-.79498352050814,1.706249999999272.495933837891243.392233886719623,1.000446166992333.791253662109739,1.639086914062318,1.296357421875655.537469482422239-1.542897949218968,1.056454467773619-3.032731933593823,1.685007934570422-4.837100830078271v4.835156250000182h1.625460205078525v-3.727624511719114c1.499121093749636-.197457275390661.863483276367333.867348632812536.938195800781614,1.389543457031323.098739624023438.69012451171875.024303588867042,1.40502685546835.024303588867042,2.092243652344223h1.208516235351453v-3.523271484375073c.35180786132787.01672119140585.780461425781141.009038085937391.783486328125036.041297607421257.10686767578045,1.138817138672493.173792724608575,2.281376953124891.265506591797021,3.725112304688082.536788330077798-.295847167969441.953624267577652-.525582275390661,1.391140136718604-.766717529297239.075637207030923.232353515624709.204415283203161.627956542968604.349910888671729,1.074916992188264.802554931640771-.251143798828707,1.918992919921948-.204781494141571,1.960960693359084-1.309801025391607.101000976562318-2.659438476562173.032709960937609-5.325303955078198.032709960937609-8.066546630859193-2.538076171875218,0-4.931044921874673-.01104858398412-7.323786621093859.007380981445749-.63787719726497.004914550780995-1.026630249023583-.11157348632878-.676395263672021-1.017011718749927Zm39.136790771484812-15.524995422363645c.092021484375437.049595947265516.184042968749054.099192810058412.27605712890545.148789672851308.024147949219696.38763427734375.048295898437573.77526763916012.079211425781978,1.271650085449437h3.568227539062718v3.028690795898001h2.414414062499418v-3.027284545897601h3.740339355468677c.060380859375073-.515802612305379.107753906249854-.920452880859557.168193359375437-1.436756286621858.647336425781759.619287414550854,1.178854980467804,1.127783203125546,1.523510742186772,1.457505798340208.646875000000364-.617707214355505,1.231582031250582-1.176055297851235,1.798315429688955-1.717238159179942-2.225917968751673-1.590390930176-3.626931152344696-3.86761505126924-4.845285644532851-6.533910827636646h4.479279785156905v-2.131753234863027h-6.954118652343823V1.028340225219836h-2.372739257813009v3.353625411987196h-6.37676513671795v2.093326721191261h4.208261718749782c-1.210312499999418,2.717731933594223-2.604528808593386,5.121554260254015-4.962333984374709,6.831624755859593.561372070313155.604825744629125,1.068112792969259,1.150803222656577,1.675913085937282,1.805654296875218.503254394530813-.601396179199583,1.0413867187508-1.244468994140334,1.579519042968968-1.887541809081995Zm-41.543563842773438-.234667968749818V3.79614349365238h-6.174534301758285V.814762687683469h-2.414895629882267v3.056041603088488h-5.864401245117733v9.064996490478734h1.745094909668296c.315681152344041-.364691162109921.542286071777198-.870312194824692.810086975097875-.893164672852436,1.092782592772892-.093253784179069,2.198164672850908-.038861389160047,3.383236083984229-.038861389160047v5.442887878418333h2.414512939452834v-5.392510986328489h3.925142211914135c.230722045898801,1.616174926758504,1.396192016602072.624834594726963,2.175758056640916.936210021973238Zm2.451082763671366,2.875210876464735c.32306030273503.507121582030777.739222412109484,1.160386962890698,1.313060302734812,2.061165161132521,2.168549194335355-1.163840332031214,4.318965454101999-2.34161499023412,6.499985961913808-3.459691772461156.285146484375218-.1461767578121.787097167968568-.101655578612736,1.086584472656796.052630004883213,1.286755371093022.662894897461229,2.498499755858575,1.478309326172166,3.805986328125073,2.092536621094041,2.353300781249345,1.10552856445247,2.374189453124927,1.062229614257376,3.94292724609295-.801525878906432.039649658203416-.047111206054979.046105957031614-.122158813476744.012751464843859-.027863159180015-2.220018310546948-1.03546325683601-4.421239013671766-2.062160339355614-6.488529052733611-3.026388244628833,1.382819824218132-2.418360900878724,2.598391113280741-4.544227294922166,3.887871093749709-6.799350585937646h2.463955078124854v-2.113204650878288h-7.352299804687391c1.72900268554713-.768723907471212.540172119140152-1.54108154296955.284688720702434-2.247662544250488-.689769287108902-1.907642405033585-1.762104492187063-.19166118621888-2.719720458983829-.350530815125239.3658447265625.891023254394895.687399902343714,1.674176330567207,1.0719580078121,2.610770874023729h-7.687470703124745v2.143561706542641c.63165344238314,0,1.193660888671729.058454132080442,1.738491210937354-.013375396728406.868840942383031-.114546661377062,1.21594665527391.305395202636646,1.587784423828452,1.042230834960719.941748046874636,1.866169281006478,2.024150390625437,3.661358184815072,3.21667236328085,5.780813140869213-2.1226171874996.973258666992479-4.399641723632158,2.017315979004707-6.664696655273474,3.055884704590426Zm-15.126329956054178,21.791788330077907c-1.395717773437354-4.267998046874709-2.762780456543624-8.479227905273547-4.17278869628899-12.676029052734521-.076798095703452-.228583374023401-.496311950683776-.4302978515625-.784472808838473-.479500122070021-.465370330810401-.079462280273219-.958730163573819.020189208984448-1.43206512451161-.031267089843823-.772280273436991-.083961181640916-1.073337707519386.225871582031687-1.28536788940437.984695434570312-.439982299804797,1.574626464844187-1.069381256103043,3.095174560547093-1.57279701232892,4.653495483398729-.805628356933084,2.493821411132558-1.572124328613427,5.000282592773146-2.366429729461743,7.537391967773146h2.631836299896349c.328429641723233-1.128218994140298.6484378051764-2.227507324219005.968256683349864-3.326147460937136.714069671630568,0,1.311373443602861.000003662108611,1.908677215576063.000003662108611q2.335323486327979-.000003662108611,3.020388793945131,2.147409667969441c.127027587890552.398477783202907.248755187988536.79864379882747.370416870116969,1.189947509765261h2.714345397949728Zm35.069655761719332-.707043457031432h-4.205441894531759v1.869177246094296h10.3917187499992v-1.900634765625h-3.95050048828125v-1.650058593750146h2.980891113282269v-1.970405273437791h-2.970666503906614v-1.646762695312646h3.440291748047457v-1.830842285155995h-9.191663818360212v1.901198730468423h3.469760742188555v1.650018310547239h-2.979968261719478v1.970599365234193h3.015578613281832v1.607709960937427Zm-8.121851806641644-3.659406738281177v5.980803222656505h1.920238037109812v-6.382342529296693c.063197021484484-.021284179687427.126394042968968-.042572021484375.189591064452543-.063859863281323.312202148437791.535836181640661.624400634766062,1.071672363281323.965020751953489,1.656287841796257.429360351562536-.622368164062209.861401367187682-1.248621826171075,1.272843017578452-1.845010986327907-.885585937500764-1.048612060546475-1.6820068359375-1.99163818359375-2.649484863281941-3.137215576171911h2.046097412109702v-2.197650146484193h-1.794082031249673v-2.456425781249891c.641323242187354-.19519226074226,1.226173095703416-.373196411132994,1.924669189453198-.585791015625546-.491180419921875-.638540039061809-.890603027343786-1.157794189452943-1.195480957031577-1.55413879394473-1.766901855468859.484270019531323-3.377402343749964.925675048827543-4.9320703125004,1.351776123046875.162923583984593,1.355205688476417.946431884765843,1.746769409179251,2.162530517578489,1.267990722655668v2.317825927734702h-2.271342773437937v1.829027709961338c.635760498047603.034500732421293,1.220181884766134.066216430664099,2.001049804687682.108590698241642-.445693359374673,1.023334350586083-.712089843749709,2.037127075195713-1.277351074218132,2.840685424805088-.897180175781614,1.275421142578125-1.130496826172021,2.480881347655668-.276741943359411,3.825366210937318.03088256835963.048636474609339.087487792968204.080939941406541.28033447265625.253465576171948.509190673828016-1.00000122070287.991072998046548-1.946378173827725,1.634179687499454-3.209384765625146Zm13.360147705077907-4.781233520508067v-5.398159790038335h-8.494764404296802v5.398159790038335h8.494764404296802Zm-33.912343139647419,4.265011596679869c.139520874023219.391801757812573.329555053710465.925451660156796.505541381835428,1.419656982422566,1.205458374023692-.344882812500146,2.38671936035189-.839285888672748,3.610545043945422-.991512451172639,1.383817749023365-.172130126952652,1.484278564453234-.862185058593241,1.179398803710683-1.990946044921657-.63360534667936.080178222656286-1.256588745117369.159008789062682-1.991885375976381.252052001953416.989430541992078-1.592792358398583,1.888712768554797-3.04046447753899,2.812648315429215-4.527824707031868-.573169555663299-.336502075195312-1.091433105468241-.640770263671584-1.589569702147855-.933220825194439-.73974792480476.621209106444439-.528435058593459,2.278205566405632-2.104094238281505,1.771234130858829.75274841308601-1.529782104492369,1.507333374023801-3.0632958984379,2.277229614258431-4.627924804687609-.743084106446076-.300704956054688-1.389087524414208-.562122802733938-2.005567016602072-.811594848632922-.703425292968859,2.148385620117551-1.362738647460901,4.260108032226526-2.853195190429688,5.945478515624927.085155029297312,1.620926513672202,1.044770507812245,1.857255249024092,2.540211181640188,1.469285888671948-.760026855468823.965588378906432-1.520053710936736,1.931180419922384-2.381262817381867,3.025316162109448Zm-4.85113952636766,4.837825927734229h2.510515136718823v-13.04320861816359h-2.510515136718823v13.04320861816359Z"/>
  <path class="b" d="m89.040000000000873,33.840000000000146h-6.960029296875291c0,.985151367187427.0040283203125,1.89044311523412-.000849609376019,2.795690917969296-.009374999999636,1.739531249999345-.265795898436409,2.116358642577325-1.989389648437282,2.488498535156396-.836821289061845.180670166015261-1.819064941406396.430012207030813-2.546110839843095.152384033202907-.631289062499491-.241058349609375-.995822753906396-1.180682373047603-1.681193847656687-2.076968994140771,1.27459716796875,0,2.171411132812864-.026634521484993,3.0658007812508.008470458984448.708413085936627.027810058593786,1.037702636718677-.224882812500255.999763183594041-.967115478515552-.038342285157341-.750219726563046-.008452148438664-1.503925781250473-.008452148438664-2.384351806640552h-7.140476074218896v-2.131080322265916h7.065146484375873v-2.170345458984229h-5.832062988281905v-2.170356445312791h5.844382324219623v-1.980838623047021c-1.742761230469114.095657958984702-3.499958496095132.192110595703525-5.316437988281905.291815185546511-.207041015624782-.607778320311809-.403044433593095-1.183146972655777-.630109863281177-1.849714965819658,1.963315429688009-.192416381835756,3.870322265624054-.353583984375291,5.770605468749636-.573008422851672,1.791071777344769-.206812133788844,3.591994628906832-.392109375000473,5.354685058593532-.752636718750182.827482910157414-.169244384765989,1.334143066405886-.188287353515989,1.691630859375437.668422851562354.141401367187427.338862304687609.504602050781614.585177612305415.86089599609295.977135009766243-1.872824707030304.32018920898372-3.62280029296744.619376220703089-5.442978515624418.930565795898474v2.202676391601017h5.851955566406104v2.212263793945567h-5.861799316406177v2.168494262695276h6.905024414063519v2.159999999999854Z"/>
  <path class="b" d="m60.555322265625364,17.720361328125364c-.858867187500437-.817186889648838-1.648846435546147-1.568829345703307-2.479302978515989-2.358988037109157-.900069580078707.776903686522928-1.820050048827397,1.570999145507812-2.690104980469187,2.321997070312136-.36681884765494-.498156738281068-.704681396484375-.956993408202834-1.134506835936918-1.540713500976381-.278587646484084.618059692382303-.478912353515625,1.062491455078089-.718253173827179,1.593477172851635-.553604736329362-.38360778808601-1.04602661132958-.724822998046875-1.602121582032851-1.110155639648838-.065921630859521.326806640625364-.116520996092731.577664794922384-.173408203123472.859674682616969h-1.837624511719696v-6.049745178222111c-1.833325195311772-.325790405273438-1.737139892578853-.291921386718968-1.955434570312718,1.465706176757521-.200083007812282,1.610987548828234-.696361083984812,3.185188293457031-1.136923828124054,5.100826721191879-.600856933593604-.785551757812755-1.008262939452834-1.318187255859812-1.498004150391353-1.958474121093786,1.553397216797748-4.622852783203598.791323242186991-9.6925048828125,1.031506347655522-14.763473510742188h1.838280029298403v4.137529449462818c.412009277342804.045156555175708.745034179686627.081656341552844,1.209243164061263.132534027099609V.789760665893482h1.928151855468968v4.631520309448206c.411060791015188.062914581299083.746389160156468.114237213135311,1.152377929687646.176375427246057v1.810677337646666h-4.159035644530377v1.933121337890952h3.464545898435972v6.687425537109448l.419150390625873.078195190429142c.275408935547603-1.461932373046693.636829833983938-2.914165649413917.803067626953634-4.388409118651907.181787109375364-1.612084350585974.213709716796075-3.243753662109157.254381103515698-4.868302917480833.039895019530377-1.593579254150427.008693847656104-3.188938293456886.008693847656104-4.83093383789037,2.341146240234593-.358637695312609,4.611430664062937-.732412719726199,6.892218017577761-1.02402706146222.296363525390916-.037891502380262.724991455077543.282228012084488.95276000976628.553656921386391.291723632812136.347639350890859.441928710937646.814039649963888.694482421873545,1.310592384338634-2.169320068358502.269921722411709-4.299840087889606.535015869140807-6.526343994139097.812052841186414v2.161410827636246h6.564107666014024c-.807348632812136,2.789990844727072-1.524133300779795,5.267022399902999-2.258466796874927,7.804700317383322.538593750001382.702509765625109,1.235273437499927,1.611212768554651,1.931953125000291,2.519915771484193l.31616455078256-.254624633788808c-.420424804688082.59155334472598-.840853271485685,1.18310668945287-1.291552734375728,1.817254028320349Zm-6.032984619141644-2.279749145507594c.081628417969114.05993225097609.163260498047748.119864501953089.244888916016862.179796752929178.666364746093677-.65148651123036,1.349234619139679-1.28759948730476,1.983812255859448-1.968702392578052.113569335937427-.121894226073891.09515258788997-.455390625000291.022573242187718-.647760314941479-.485277099609448-1.286199645996021-1.001751708985466-2.560627441405813-1.475800781250655-3.757335205077652-.253374023437573,2.023807983398001-.514423828124563,4.108905029296693-.775473632813373,6.194001159668005Zm3.379980468751455-4.157234802246421c.125895996092368-.001019897461447.251791992186554-.002039794921984.377687988280741-.003060607909902.355546875000073-1.153043518066625.711097412109666-2.306087951660629,1.094190673828052-3.54846130371152h-2.743608398437573c.445546875000218,1.244267578124891.858640136719259,2.397895202637301,1.27172973632878,3.551521911621421Z"/>
  <path class="b" d="m65.616599121094623,37.200040283203634c.33306884765625,0,.620610351561481-.047186279297421.886933593748836.00799438476497,1.297807617187573.268908691406978,1.841279296875655-.447777099609084,1.869770507813882-1.566079101562536.060600585937209-2.378496093750073.018508300780013-4.759614257812245.018508300780013-7.230465087890479h-1.359968261718677c-.531657714844187,4.109014892578671-1.000539550781468,8.302423095703489-4.974624023438082,10.839093017579216-.208564453123472-.244716796876673-.418520507811991-.519385986329326-.658461914061263-.764743652344805-.245782470703489-.251334228515589-.520913085938446-.473972167968896-.821209716797966-.743254394531505.667891845703707-.469086914062245,1.39099731445458-.976948242187063,2.114102783203634-1.484809570311882-.141188964844332-.166387939453671-.282370605467804-.332779541015952-.423552246093095-.499167480468714-2.443762207030886.586102294922057-4.887528076173112,1.172204589843204-7.439655761718313,1.784296875000109-.149300537110321-.783687744141389-.276459960938155-1.451143798828525-.422281494142226-2.216564941406432,1.152008056640625-.002047119141025,1.301748046875218-.606514892578161,1.29113891601628-1.481623535156359-.042077636719114-3.471287841796766-.017307128906396-6.943385009765734-.017307128906396-10.489645385741824h6.240021972656905c0,3.063982543944803-.002490234375728,6.091197509765152.002395019530013,9.118401489257849.000842285156978.520129394531068-.170361328124272,1.074656982421402.65490966797006,1.277746582030886.230544433592513.056737060546766.288852539062646.813380126953234.44793457031119,1.317996826172021,1.373078613281905-2.001976318359084,1.444064941406396-4.343122558593677,1.833713378906396-6.728080444336229h-2.375134277343022v-1.930339965820167h2.291960449218095v-3.765611572265698h2.132849121095205v3.688377685546584h3.725939941405159c0,1.901449584961483.007895507813373,3.67096435546955-.003347167968968,5.440356445313228-.005573730468313.875478515624309-.017167968750073,1.752810058593241-.079313964843095,2.625509033202434-.064262695312209.902365722656214-.116396484374491,1.817120361328307-.311022949219478,2.696077880859775-.322346191405813,1.455754394531141-1.140900878905086,2.018540039061918-2.7075146484367,2.024241943359812-.43878662109455.001596679687282-.877580566406323.00024169921744-1.397666015625873.00024169921744-.168112792967804-.621745605468277-.334526367187209-1.237232666015188-.519118652342513-1.919948730467695Zm-7.968043212891644-2.715252685547057c2.15521362304753.143953857421366,2.496287841797312-.169387207031832,2.232912597655741-2.019796142578343h-2.232912597655741v2.019796142578343Zm2.300515136719696-9.223099365234702h-2.276315917968532v1.775967407226744h2.276315917968532v-1.775967407226744Zm.002625732420711,3.623345947265989h-2.253991699217295v1.770263671875h2.253991699217295v-1.770263671875Z"/>
  <path class="b" d="m27.272047119140552,28.750025024414754c-.350234985351562.905438232421147.03851806640705,1.021926269530923.676395263672021,1.017011718749927,2.392741699219187-.018429565429869,4.785710449218641-.007380981445749,7.323786621093859-.007380981445749,0,2.741242675780995.068291015624709,5.407108154297021-.032709960937609,8.066546630859193-.041967773437136,1.105019531250036-1.158405761718313,1.0586572265629-1.960960693359084,1.309801025391607-.145495605468568-.446960449219659-.274273681640807-.842563476563555-.349910888671729-1.074916992188264-.437515869140952.241135253906577-.854351806640807.470870361327798-1.391140136718604.766717529297239-.091713867188446-1.443735351563191-.158638916016571-2.586295166015589-.265506591797021-3.725112304688082-.003024902343896-.032259521483866-.431678466797166-.024576416015407-.783486328125036-.041297607421257v3.523271484375073h-1.208516235351453c0-.687216796875873.074436035156396-1.402119140625473-.024303588867042-2.092243652344223-.074712524414281-.522194824218786.560925292968022-1.587000732421984-.938195800781614-1.389543457031323v3.727624511719114h-1.625460205078525v-4.835156250000182c-.628553466796802,1.804368896484448-1.147538452148183,3.294202880859302-1.685007934570422,4.837100830078271-.638640747069985-.505103759765916-1.143153076171075-.904123535156032-1.639086914062318-1.296357421875655.214412841796729-.460187988281177.427470703125437-.917468261718568.79498352050814-1.706249999999272-1.863607177734593.810644531249636-3.447713012695203,1.499707031249272-5.143467407227035,2.237336425780995-.176975097655486-.536945800781723-.360021972655886-1.092315673828125-.597185668944803-1.811876220703198,1.745722045898219-.696448974609666,3.474153442382885-1.385998535156432,5.323410644531577-2.123752441406396.12792846679622.334694824218786.265365600585938.694255371094187.478932495116169,1.252998046875291,1.295460205078598-3.68780639648412.895345458984593-7.344986572265952.996123046875255-11.108785400390843h3.879594726562573c-.219525146484557-.535957031250291-.363934936523037-.888522949218896-.545674438476453-1.332231445312573.646347656250327-.22216735839811,1.286846923828307-.442324218749491,1.986895751952943-.682950439452725.347958984375509.666919555664208.671217041015552,1.286495361327979,1.030118408203634,1.974382324218823h2.9022802734371v4.515064086914208h-7.201907958984521Zm-.184348754882194-2.785735473633395c.052098999022746.454844970703562.090239868163735.787849731445021.125289916992188,1.093853759765807h5.351249999999709v-1.093853759765807h-5.476539916991896Zm5.577200317382449,11.570661621093677c.395965576171875-.145686035156359.864997558594041-.223194580077688.874057617187646-.337243652343204.052950439453525-.666632080078671.021467285156177-1.344506835937864-.055437011718823-2.010043945312646-.007866210937209-.068085937499745-.505762939453234-.079552001953743-.818620605468823-.123200683593495v2.470488281249345Zm-4.254830932616642-5.965078125000218q-.200269775391462,1.804064941406978.816551513671584,1.613104248047421.113214111327579-1.683065185547093-.816551513671584-1.613104248047421Zm2.112584838866496,1.750415039063228c.945637207031723-.082976074219005,1.039519042969005-.170262451172675.890350341796875-1.210986328125728-.039580078125255-.276174316405559-.400283203124673-.506319580077616-.613546142577434-.757602539061736-.092266845703307.074886474609229-.184537353516134.149772949218459-.276804199219441.224659423827688v1.743929443359775Zm2.177387695312973-.041337890625073q.998155517578198-.015780029297275.809999999999491-1.709190673828743-.929974365233647-.069931640624418-.809999999999491,1.709190673828743Z"/>
  <path class="b" d="m66.408837890625364,13.225029602051109c-.538132324218168.643072814941661-1.076264648438155,1.286145629882412-1.579519042968968,1.887541809081995-.607800292968022-.654851074218641-1.114541015624127-1.200828552246094-1.675913085937282-1.805654296875218,2.357805175781323-1.710070495605578,3.752021484375291-4.11389282226537,4.962333984374709-6.831624755859593h-4.208261718749782v-2.093326721191261h6.37676513671795V1.028340225219836h2.372739257813009v3.256382675171153h6.954118652343823v2.131753234863027h-4.479279785156905c1.218354492188155,2.666295776367406,2.619367675781177,4.943519897460646,4.845285644532851,6.533910827636646-.566733398438373.541182861328707-1.151440429688591,1.099530944824437-1.798315429688955,1.717238159179942-.344655761718968-.329722595214662-.876174316405013-.838218383789354-1.523510742186772-1.457505798340208-.060439453125582.516303405762301-.107812500000364.920953674316479-.168193359375437,1.436756286621858h-3.740339355468677v3.027284545897601h-2.414414062499418v-3.028690795898001h-3.568227539062718c-.030915527344405-.496382446289317-.055063476562282-.884015808105687-.079211425781978-1.271650085449437-.092014160156396-.049596862792896-.184035644530013-.099193725585792-.27605712890545-.148789672851308Zm6.392739257811627-6.325453033447047v5.514294891357167h3.0200244140633c-1.027053222656832-1.875299377441479-2.046166992187864-3.736112365722875-3.0200244140633-5.514294891357167Zm-5.362067871092222,5.489458465575808h2.842873535155377v-5.719646759032912c-.973681640625728,1.958975372313944-1.913188476562937,3.849189605713036-2.842873535155377,5.719646759032912Z"/>
  <path class="b" d="m24.865274047851926,12.990361633301291c-.779566040038844-.311375427246276-1.945036010742115.679964904785265-2.175758056640916-.936210021973238h-3.925142211914135v5.392510986328489h-2.414512939452834v-5.442887878418333c-1.185071411133322,0-2.290453491211338-.054392395019022-3.383236083984229.038861389160047-.267800903320676.022852478027744-.494405822753833.528473510742515-.810086975097875.893164672852436h-1.745094909668296V3.870804290771957h5.864401245117733V.814762687683469h2.414895629882267v2.981380805968911h6.174534301758285v9.19421813964891Zm-6.119613647460938-3.250454406738754h3.973648681640043v-3.648849792480178h-3.973648681640043v3.648849792480178Zm-2.468450317383031-3.644266662597147h-3.73327514648463v3.669851989745439h3.73327514648463v-3.669851989745439Z"/>
  <path class="b" d="m27.316356811523292,15.865572509766025c2.265054931641316-1.038568725585719,4.542079467773874-2.082626037597947,6.664696655273474-3.055884704590426-1.192521972655413-2.119454956054142-2.274924316406214-3.914643859862736-3.21667236328085-5.780813140869213-.371837768554542-.736835632324073-.718943481445422-1.156777496337781-1.587784423828452-1.042230834960719-.544830322265625.071829528808848-1.106837768554215.013375396728406-1.738491210937354.013375396728406v-2.143561706542641h7.687470703124745c-.384558105468386-.936594543456522-.7061132812496-1.719747619628833-1.0719580078121-2.610770874023729.957615966796766.158869628906359,2.029951171874927-1.557111589908345,2.719720458983829.350530815125239.255483398437718.706581001280938,1.444313964844696,1.478938636779276-.284688720702434,2.247662544250488h7.352299804687391v2.113204650878288h-2.463955078124854c-1.289479980468968,2.255123291015479-2.505051269531577,4.380989685058921-3.887871093749709,6.799350585937646,2.067290039061845.964227905273219,4.268510742186663,1.990924987792823,6.488529052733611,3.026388244628833.033354492187755-.094295654296729.026898193359557-.019248046874964-.012751464843859.027863159180015-1.568737792968022,1.863755493163808-1.589626464843604,1.907054443358902-3.94292724609295.801525878906432-1.307486572266498-.614227294921875-2.51923095703205-1.429641723632812-3.805986328125073-2.092536621094041-.299487304688228-.154285583495948-.801437988281577-.198806762695312-1.086584472656796-.052630004883213-2.181020507811809,1.118076782227035-4.331436767578452,2.295851440429942-6.499985961913808,3.459691772461156-.573837890625327-.900778198241824-.989999999999782-1.554043579101744-1.313060302734812-2.061165161132521Zm5.462074584961556-9.837604064941843c-.115506591797384.098872833252244-.231013183593859.197745208740344-.346523437500764.296618041992588,1.032462158203998,1.545438537597875,2.064927978515698,3.090876159667459,3.123918457031323,4.67602752685525,1.474442138672202-1.318165283202688,2.768210449219623-3.705854644775172,2.825819091796802-4.972645568847838h-5.603214111327361Z"/>
  <path class="b" d="m12.190026855469114,37.657360839843932h-2.714345397949728c-.121661682128433-.391303710937791-.243389282226417-.791469726562354-.370416870116969-1.189947509765261q-.684611206054797-2.147563476562937-3.020388793945131-2.147409667969441c-.597303771973202,0-1.194607543945494-.000003662108611-1.908677215576063-.000003662108611-.319818878173464,1.098640136718132-.639827041626631,2.197928466796839-.968256683349864,3.326147460937136H.57610559463501c.794305400848316-2.537109375,1.560801372528658-5.043570556640589,2.366429729461743-7.537391967773146.503415756225877-1.558320922851635,1.132814712524123-3.078869018554542,1.57279701232892-4.653495483398729.212030181884984-.758823852538626.513087615967379-1.068656616211229,1.28536788940437-.984695434570312.473334960937791.051456298828271.966694793701208-.048195190429396,1.43206512451161.031267089843823.288160858154697.049202270507521.70767471313502.25091674804662.784472808838473.479500122070021,1.410008239745366,4.196801147460974,2.777070922851635,8.408031005859812,4.17278869628899,12.676029052734521Zm-5.77789215087887-10.939416503906614c-.081702117920031.012599487305124-.163404235840062.025198974610248-.245105895995948.037798461914463-.455982971191588,1.76580688476588-.911965942383176,3.53161376953085-1.385708312988754,5.366193237304287h3.07183685302698c-.486992340087454-1.826273803710137-.964007720946938-3.615131835937063-1.441022644042278-5.40399169921875Z"/>
  <path class="b" d="m47.259682617188446,36.9503173828125v-1.607709960937427h-3.015578613281832v-1.970599365234193h2.979968261719478v-1.650018310547239h-3.469760742188555v-1.901198730468423h9.191663818360212v1.830842285155995h-3.440291748047457v1.646762695312646h2.970666503906614v1.970405273437791h-2.980891113282269v1.650058593750146h3.95050048828125v1.900634765625h-10.3917187499992v-1.869177246094296h4.205441894531759Z"/>
  <path class="b" d="m39.137830810546802,33.290910644531323c-.643106689452907,1.263006591797421-1.124989013671438,2.209383544922275-1.634179687499454,3.209384765625146-.192846679688046-.172525634765407-.24945190429662-.204829101562609-.28033447265625-.253465576171948-.853754882812609-1.34448486328165-.620438232422202-2.549945068359193.276741943359411-3.825366210937318.565261230468423-.803558349609375.831657714843459-1.817351074219005,1.277351074218132-2.840685424805088-.780867919921548-.042374267577543-1.365289306640079-.074089965820349-2.001049804687682-.108590698241642v-1.829027709961338h2.271342773437937v-2.317825927734702c-1.216098632812646.478778686523583-1.999606933593896.087214965820749-2.162530517578489-1.267990722655668,1.554667968750437-.426101074219332,3.165168457031541-.867506103515552,4.9320703125004-1.351776123046875.304877929687791.396344604491787.704300537109702.915598754882922,1.195480957031577,1.55413879394473-.698496093749782.212594604492551-1.283345947265843.390598754883285-1.924669189453198.585791015625546v2.456425781249891h1.794082031249673v2.197650146484193h-2.046097412109702c.967478027344441,1.145577392578161,1.763898925781177,2.088603515625437,2.649484863281941,3.137215576171911-.411441650390771.596389160156832-.843482666015916,1.222642822265698-1.272843017578452,1.845010986327907-.340620117187427-.584615478514934-.652818603515698-1.120451660155595-.965020751953489-1.656287841796257-.063197021483575.021287841796948-.126394042968059.042575683593896-.189591064452543.063859863281323v6.382342529296693h-1.920238037109812v-5.980803222656505Z"/>
  <path class="b" d="m52.497978515624709,28.509677124023256h-8.494764404296802v-5.398159790038335h8.494764404296802v5.398159790038335Zm-2.155645751952761-3.722268676757267h-4.422440185546293v2.005288696288517h4.422440185546293v-2.005288696288517Z"/>
  <path class="b" d="m18.58563537597729,32.774688720703125c.861209106445131-1.094135742187063,1.621235961913044-2.059727783203016,2.381262817381867-3.025316162109448-1.495440673827943.387969360352145-2.455056152342877.151640625000255-2.540211181640188-1.469285888671948,1.490456542968786-1.685370483398401,2.149769897460828-3.797092895507376,2.853195190429688-5.945478515624927.616479492187864.249472045898983,1.262482910155995.510889892578234,2.005567016602072.811594848632922-.76989624023463,1.564628906249709-1.524481201172421,3.09814270019524-2.277229614258431,4.627924804687609,1.575659179688046.506971435546802,1.364346313476744-1.15002502441439,2.104094238281505-1.771234130858829.498136596679615.292450561522855,1.016400146484557.596718749999127,1.589569702147855.933220825194439-.923935546874418,1.487360229492879-1.823217773437136,2.935032348633285-2.812648315429215,4.527824707031868.735296630859011-.093043212890734,1.358280029297021-.17187377929713,1.991885375976381-.252052001953416.304879760742551,1.128760986328416.204418945312682,1.818815917969005-1.179398803710683,1.990946044921657-1.223825683593532.152226562499891-2.405086669921729.646629638672493-3.610545043945422.991512451172639-.175986328124964-.494205322265771-.366020507812209-1.027855224609993-.505541381835428-1.419656982422566Z"/>
  <path class="b" d="m13.73449584960963,37.612514648437354v-13.04320861816359h2.510515136718823v13.04320861816359h-2.510515136718823Z"/>
  <path class="c" d="m54.52233764648372,15.44061218261777c.26104980468881-2.085096130371312.5220996093758-4.170193176270004.775473632813373-6.194001159668005.474049072265188,1.196707763671839.990523681641207,2.471135559081631,1.475800781250655,3.757335205077652.072579345702252.192369689941188.090996093749709.525866088867588-.022573242187718.647760314941479-.634577636719769.681102905273292-1.317447509765771,1.317215881347693-1.983812255859448,1.968702392578052-.081628417969114-.05993225097609-.163260498047748-.119864501953089-.244888916016862-.179796752929178Z"/>
  <path class="c" d="m57.902318115235175,11.283377380371348c-.413089599609521-1.15362670898412-.826182861328562-2.30725433349653-1.27172973632878-3.551521911621421h2.743608398437573c-.383093261718386,1.24237335205089-.738643798827979,2.395417785644895-1.094190673828052,3.54846130371152-.125895996094187.001020812987917-.251791992188373.002040710448455-.377687988280741.003060607909902Z"/>
  <path class="c" d="m57.648555908202979,34.484787597656577v-2.019796142578343h2.232912597655741c.263375244141571,1.850408935546511-.077698974608211,2.163749999999709-2.232912597655741,2.019796142578343Z"/>
  <path class="c" d="m59.949071044922675,25.261688232421875v1.775967407226744h-2.276315917968532v-1.775967407226744h2.276315917968532Z"/>
  <path class="c" d="m59.951696777343386,28.885034179687864v1.770263671875h-2.253991699217295v-1.770263671875h2.253991699217295Z"/>
  <path class="c" d="m27.087698364258358,25.964289550781359h5.476539916991896v1.093853759765807h-5.351249999999709c-.035050048828452-.306004028320785-.073190917969441-.639008789062245-.125289916992188-1.093853759765807Z"/>
  <path class="c" d="m32.664898681640807,37.534951171875036v-2.470488281249345c.312857666015589.043648681639752.810754394531614.05511474609375.818620605468823.123200683593495.076904296875.665537109374782.108387451172348,1.343411865233975.055437011718823,2.010043945312646-.009060058593604.114049072265516-.478092041015771.191557617186845-.874057617187646.337243652343204Z"/>
  <path class="c" d="m28.410067749024165,31.569873046874818q.929765624999163-.069960937499673.816551513671584,1.613104248047421-1.016821289063046.190960693359557-.816551513671584-1.613104248047421Z"/>
  <path class="c" d="m30.522652587890661,33.320288085938046v-1.743929443359775c.092266845703307-.074886474609229.184537353516134-.149772949218459.276804199219441-.224659423827688.213262939452761.25128295898412.573966064452179.481428222656177.613546142577434.757602539061736.14916870117213,1.040723876953052.055286865234848,1.128010253906723-.890350341796875,1.210986328125728Z"/>
  <path class="c" d="m32.700040283203634,33.278950195312973q-.119974365234157-1.779122314453161.809999999999491-1.709190673828743.188155517578707,1.693410644531468-.809999999999491,1.709190673828743Z"/>
  <path class="c" d="m72.801577148436991,6.899576568604061c.973857421875437,1.778182525634293,1.992971191406468,3.638995513915688,3.0200244140633,5.514294891357167h-3.0200244140633v-5.514294891357167Z"/>
  <path class="c" d="m67.439509277344769,12.389035034179869c.92968505859244-1.870457153319876,1.869191894529649-3.760671386718968,2.842873535155377-5.719646759032912v5.719646759032912h-2.842873535155377Z"/>
  <path class="c" d="m18.745660400390989,9.739907226562536v-3.648849792480178h3.973648681640043v3.648849792480178h-3.973648681640043Z"/>
  <path class="c" d="m16.277210083007958,6.095640563965389v3.669851989745439h-3.73327514648463v-3.669851989745439h3.73327514648463Z"/>
  <path class="c" d="m32.778431396484848,6.027968444824182c1.86773803710912,0,3.735476074218241,0,5.60326904296835-.000309448241751-.057663574218168,1.267100372314417-1.351431884765589,3.654789733886901-2.825874023437791,4.972955017089589-1.058990478515625-1.585151367187791-2.091456298827325-3.130588989257376-3.123918457031323-4.67602752685525.115510253906905-.098872833252244.23101684570338-.197745208740344.346523437500764-.296618041992588Z"/>
  <path class="c" d="m6.412134704590244,26.717944335937318c.477014923095339,1.788859863281687.954030303954823,3.577717895508613,1.441022644042278,5.40399169921875h-3.07183685302698c.473742370605578-1.834579467773438.929725341797166-3.600386352538408,1.385708312988754-5.366193237304287.081701660155886-.012599487304215.163403778075917-.025198974609339.245105895995948-.037798461914463Z"/>
  <path class="c" d="m50.342332763671948,24.787408447265989v2.005288696288517h-4.422440185546293v-2.005288696288517h4.422440185546293Z"/>
</svg>